<svg width="87" height="124" viewBox="0 0 87 124" fill="none" xmlns="http://www.w3.org/2000/svg">
<path d="M5.99918 122.5C5.99918 123.328 29.6406 124 44 124C58.3594 124 57.9992 123.328 57.9992 122.5C57.9992 121.672 58.3594 121 44 121C29.6406 121 5.99918 121.672 5.99918 122.5Z" fill="#C9C9C9"/>
<path d="M37.7885 47.9263C44.2172 49.6489 46.7732 54.3556 47.2476 56.4936C47.6416 55.023 48.0759 51.9872 46.9711 49.8433C45.8663 47.6994 39.5916 42.6121 31.5122 43.6538C23.4328 44.6955 17.631 48.5578 15.063 58.1416C12.4951 67.7254 17.9157 77.4887 21.0992 82.3137C23.9884 86.6928 33.0916 96.7229 37.5924 101.625C41.4429 100.192 50.6294 96.5959 56.5713 93.6662C63.9986 90.0041 65.813 85.2544 66.8029 79.7407C67.9789 73.19 61.727 64.7212 52.7781 63.9538C43.8292 63.1864 42.5541 68.5514 42.6047 68.5649C51.6021 63.693 57.907 68.2629 60.5106 71.0802C63.1142 73.8974 64.777 81.843 59.6903 86.6758C55.6209 90.542 44.1957 94.7706 38.9918 96.4016C36.5497 93.7907 30.947 87.6915 28.0737 84.1825C24.4822 79.7962 17.8589 69.256 19.585 60.875C21.2045 53.0116 29.7526 45.7731 37.7885 47.9263Z" fill="#C9C9C9"/>
<rect x="29.5196" y="1.22474" width="57.2343" height="109.32" rx="4" transform="rotate(15 29.5196 1.22474)" stroke="#191919" stroke-width="2"/>
<rect x="31.4493" y="11.7833" width="48.0428" height="19.9576" rx="2" transform="rotate(15 31.4493 11.7833)" fill="#191919" stroke="#191919" stroke-width="2"/>
<mask id="path-5-inside-1_31_6253" fill="white">
<rect x="7.34766" y="97.1797" width="50.3934" height="6.18866" rx="1" transform="rotate(15 7.34766 97.1797)"/>
</mask>
<rect x="7.34766" y="97.1797" width="50.3934" height="6.18866" rx="1" transform="rotate(15 7.34766 97.1797)" stroke="#191919" stroke-width="4" mask="url(#path-5-inside-1_31_6253)"/>
<circle cx="31.6515" cy="49.397" r="4.61705" transform="rotate(15 31.6515 49.397)" fill="#191919" stroke="#191919" stroke-width="2"/>
<circle cx="57.7961" cy="62.2154" r="4.61705" transform="rotate(15 57.7961 62.2154)" fill="#191919" stroke="#191919" stroke-width="2"/>
<circle cx="27.2883" cy="65.6763" r="4.61705" transform="rotate(15 27.2883 65.6763)" fill="#191919" stroke="#191919" stroke-width="2"/>
<circle cx="53.4367" cy="78.4927" r="4.61705" transform="rotate(15 53.4367 78.4927)" fill="#191919" stroke="#191919" stroke-width="2"/>
<circle cx="22.9328" cy="81.9498" r="4.61705" transform="rotate(15 22.9328 81.9498)" fill="#191919" stroke="#191919" stroke-width="2"/>
<circle cx="49.0734" cy="94.7701" r="4.61705" transform="rotate(15 49.0734 94.7701)" fill="#191919" stroke="#191919" stroke-width="2"/>
</svg>
