<svg width="63" height="129" viewBox="0 0 63 129" fill="none" xmlns="http://www.w3.org/2000/svg">
<path d="M62.7821 125.852C62.7821 126.68 39.1407 127.352 24.7812 127.352C10.4218 127.352 10.7821 126.68 10.7821 125.852C10.7821 125.023 10.4218 124.352 24.7812 124.352C39.1407 124.352 62.7821 125.023 62.7821 125.852Z" fill="#C9C9C9"/>
<path d="M19.294 91.7093L18.3628 89.3892L20.907 89.5533L25.6072 91.3304L23.9942 93.4864L14.1337 124.491L11.7189 123.844L19.294 91.7093Z" fill="#191919"/>
<path d="M38.0582 22.2161L42.895 4.16473C42.9559 3.93773 43.0759 3.73095 43.2428 3.56551V3.56551C43.5781 3.23319 44.0647 3.10398 44.5207 3.22617L46.478 3.75063C46.934 3.87281 47.2908 4.22801 47.415 4.68346V4.68346C47.4769 4.91019 47.4774 5.14927 47.4166 5.37627L42.5797 23.4276M38.0582 22.2161L34.7669 21.3342C32.7097 20.7829 30.5952 22.0038 30.044 24.0609V24.0609M38.0582 22.2161L42.5797 23.4276M22.3269 52.8614V52.8614C21.2075 52.5614 20.0569 53.2257 19.7569 54.3452L19.2184 56.355M22.3269 52.8614L40.8808 57.8329M22.3269 52.8614L30.044 24.0609M19.2184 56.355L18.2089 56.0845C17.8192 55.9801 17.4187 56.2113 17.3143 56.601V56.601C17.1762 57.1164 17.098 57.6459 17.0812 58.1792L16.6849 70.7995L12.5336 84.1094M19.2184 56.355L41.826 62.4127M12.5336 84.1094V84.1094C12.2753 84.0402 12.0097 84.1935 11.9405 84.4518L11.9138 84.5516C11.5583 85.8784 12.1698 87.2745 13.3861 87.9129L17.8048 90.2321C18.7661 90.7366 19.2656 91.8264 19.0202 92.884L13.177 118.07L11.911 122.795C11.6873 123.63 12.1827 124.488 13.0176 124.712V124.712V124.712C13.8524 124.936 14.7105 124.44 14.9342 123.606L16.2003 118.881L23.7332 94.1468C24.0494 93.1082 25.0269 92.4142 26.1117 92.4579L31.098 92.6588C32.4706 92.7141 33.6982 91.8108 34.0537 90.4839L34.0804 90.3842C34.1496 90.1259 33.9963 89.8604 33.738 89.7911V89.7911M12.5336 84.1094L33.738 89.7911M42.5797 23.4276L45.871 24.3095C47.9282 24.8607 49.149 26.9752 48.5978 29.0324V29.0324M40.8808 57.8329V57.8329C42.0002 58.1328 42.6645 59.2834 42.3646 60.4029L41.826 62.4127M40.8808 57.8329L48.5978 29.0324M41.826 62.4127L42.8355 62.6832C43.2252 62.7876 43.4564 63.1881 43.352 63.5778V63.5778C43.2139 64.0932 43.0169 64.5909 42.7647 65.0611L36.7979 76.1887L33.738 89.7911M48.5978 29.0324L30.044 24.0609" stroke="#191919" stroke-width="2" stroke-linecap="round" stroke-linejoin="round"/>
<path d="M27.2242 65.269L26.1328 64.9766L22.3729 79.0089L23.4643 79.3013L27.2242 65.269Z" fill="#C9C9C9"/>
<path d="M27.9673 67.2337C28.2528 67.227 28.544 67.2605 28.8338 67.3381C30.4699 67.7765 31.4408 69.4582 31.0024 71.0943C30.5661 72.7226 28.8983 73.692 27.2696 73.2691L26.5639 74.2304C26.6907 74.2779 26.821 74.3197 26.9545 74.3555C29.1934 74.9554 31.4946 73.6268 32.0945 71.3879C32.6944 69.1491 31.3658 66.8478 29.127 66.2479C28.6973 66.1328 28.2653 66.0887 27.8435 66.1085L27.9673 67.2337Z" fill="#C9C9C9"/>
<rect x="32.1328" y="20.6133" width="17" height="4" rx="1" transform="rotate(15 32.1328 20.6133)" fill="#191919"/>
<path d="M13.1211 83.8438L33.4055 89.2789L32.8879 91.2108C32.4591 92.8112 30.8141 93.7609 29.2137 93.3321L14.7248 89.4498C13.1244 89.021 12.1746 87.376 12.6035 85.7756L13.1211 83.8438Z" fill="#191919"/>
</svg>
