<svg width="145" height="104" viewBox="0 0 145 104" fill="none" xmlns="http://www.w3.org/2000/svg">
<ellipse cx="72.3977" cy="100.488" rx="71.3977" ry="3.51136" fill="#C9C9C9"/>
<path d="M72.3984 15V96.9074H12.7227V2C12.7227 1.44772 13.1704 1 13.7227 1H58.3984C66.1304 1 72.3984 7.268 72.3984 15Z" stroke="#191919" stroke-width="2"/>
<path d="M12.722 16.9844V96.9072H2C1.44772 96.9072 1 96.4595 1 95.9072V17.9844C1 17.4321 1.44772 16.9844 2 16.9844H12.722Z" fill="#191919" stroke="#191919" stroke-width="2"/>
<path d="M12.7227 83.0547H58.5451C66.196 83.0547 72.3984 89.257 72.3984 96.908H12.7227V83.0547Z" stroke="#191919" stroke-width="2"/>
<path d="M12.7031 87.5781H63.0327C68.2041 87.5781 72.3963 91.7704 72.3963 96.9418H12.7031V87.5781Z" stroke="#191919" stroke-width="2"/>
<path d="M12.7031 92.2578H67.7145C70.3002 92.2578 72.3963 94.3539 72.3963 96.9396H12.7031V92.2578Z" stroke="#191919" stroke-width="2"/>
<path d="M23.9102 20.1816H60.6747" stroke="#191919" stroke-width="2" stroke-linecap="round"/>
<path d="M23.9102 27.6406H60.6747" stroke="#191919" stroke-width="2" stroke-linecap="round"/>
<path d="M23.9102 35.1016H60.6747" stroke="#191919" stroke-width="2" stroke-linecap="round"/>
<path d="M23.9102 42.5625H60.6747" stroke="#191919" stroke-width="2" stroke-linecap="round"/>
<path d="M23.9102 50.0195H60.6747" stroke="#191919" stroke-width="2" stroke-linecap="round"/>
<path d="M23.9102 57.4766H60.6747" stroke="#191919" stroke-width="2" stroke-linecap="round"/>
<path d="M23.9102 64.9375H60.6747" stroke="#191919" stroke-width="2" stroke-linecap="round"/>
<path d="M72.3985 15V96.9074H132.074V2C132.074 1.44772 131.627 1 131.074 1H86.3985C78.6665 1 72.3985 7.268 72.3985 15Z" stroke="#191919" stroke-width="2"/>
<path d="M132.075 16.9844V96.9072H142.797C143.349 96.9072 143.797 96.4595 143.797 95.9072V17.9844C143.797 17.4321 143.349 16.9844 142.797 16.9844H132.075Z" fill="#191919" stroke="#191919" stroke-width="2"/>
<path d="M132.074 83.0547H86.2518C78.6008 83.0547 72.3985 89.257 72.3985 96.908H132.074V83.0547Z" stroke="#191919" stroke-width="2"/>
<path d="M132.09 87.5781H81.7603C76.5889 87.5781 72.3967 91.7704 72.3967 96.9418H132.09V87.5781Z" stroke="#191919" stroke-width="2"/>
<path d="M132.09 92.2578H77.0785C74.4928 92.2578 72.3967 94.3539 72.3967 96.9396H132.09V92.2578Z" stroke="#191919" stroke-width="2"/>
<path d="M120.883 20.1816H84.1183" stroke="#191919" stroke-width="2" stroke-linecap="round"/>
<path d="M120.883 27.6406H84.1183" stroke="#191919" stroke-width="2" stroke-linecap="round"/>
<path d="M120.883 35.1016H84.1183" stroke="#191919" stroke-width="2" stroke-linecap="round"/>
<path d="M120.883 42.5625H84.1183" stroke="#191919" stroke-width="2" stroke-linecap="round"/>
<path d="M120.883 50.0195H84.1183" stroke="#191919" stroke-width="2" stroke-linecap="round"/>
<path d="M120.883 57.4766H84.1183" stroke="#191919" stroke-width="2" stroke-linecap="round"/>
<path d="M120.883 64.9375H84.1183" stroke="#191919" stroke-width="2" stroke-linecap="round"/>
</svg>
