<svg width="19" height="21" viewBox="0 0 19 21" fill="none" xmlns="http://www.w3.org/2000/svg">
<path fill-rule="evenodd" clip-rule="evenodd" d="M2.14696 7.27213L4.96638 7.27238V5.58687C4.96638 3.02879 6.98303 0.962891 9.43989 0.962891C11.8968 0.962891 13.9134 3.02884 13.9136 5.58648V7.27192H16.733C16.9791 7.27192 17.199 7.46769 17.2223 7.7437L18.2842 20.4009C18.2965 20.5497 18.2479 20.6934 18.154 20.7989L18.1532 20.7998C18.0603 20.9048 17.9299 20.9629 17.795 20.9629H1.08484C0.949164 20.9629 0.819113 20.9045 0.725958 20.7993C0.632033 20.6936 0.583291 20.5486 0.595638 20.401L1.65777 7.74304C1.6804 7.46827 1.89962 7.27215 2.14696 7.27213ZM5.94889 7.27234L5.94917 5.58687C5.94921 3.6156 7.50543 1.99626 9.43989 1.99626C11.3744 1.99626 12.9306 3.61557 12.9306 5.58687V7.27234H5.94889ZM16.2828 8.3055H13.9131V10.3777C13.9131 10.6729 13.6847 10.8944 13.4217 10.8944C13.1588 10.8944 12.9303 10.6729 12.9303 10.3777V8.3055H5.9487V10.3777C5.9487 10.6726 5.71964 10.8944 5.4573 10.8944C5.19496 10.8944 4.96591 10.6726 4.96591 10.3777V8.3055H2.59623L1.62096 19.9295H17.2583L16.2828 8.3055Z" fill="#191919"/>
</svg>
