<svg width="26" height="30" viewBox="0 0 26 30" fill="none" xmlns="http://www.w3.org/2000/svg">
<path d="M24.9659 21.3709L23.1731 20.3282C23.5201 19.9227 23.9829 19.6909 24.4454 19.5171C24.7345 19.4591 24.9659 19.1116 24.8503 18.822C24.7347 18.5325 24.4454 18.3007 24.1563 18.4165C23.3466 18.6482 22.6527 19.1116 22.1322 19.7489L20.3395 18.7063C20.9178 18.0111 21.6697 17.4318 22.595 17.2C22.8841 17.142 23.1154 16.7945 22.9999 16.5049C22.942 16.2154 22.595 15.9836 22.3059 16.0994C21.0336 16.4469 20.0504 17.2 19.2985 18.1269L16.5802 16.5627C16.7537 16.0991 16.8693 15.5778 16.8693 15.0565C16.8693 14.5352 16.7537 14.0138 16.5802 13.5503L19.2985 11.9861C20.0504 12.971 21.0913 13.7241 22.3059 14.0136C22.595 14.0716 22.9422 13.8978 22.9999 13.608C23.0578 13.3185 22.8843 12.9707 22.595 12.9129C21.6697 12.6811 20.9178 12.1598 20.3395 11.4067L22.1322 10.364C22.6527 11.0014 23.3468 11.4647 24.1563 11.6965C24.4454 11.7545 24.7926 11.5807 24.8503 11.2909C24.9082 11.0014 24.7347 10.6536 24.4454 10.5958C23.925 10.48 23.5201 10.1903 23.1731 9.78472L24.9659 8.74205C25.255 8.56827 25.3708 8.22072 25.1973 7.93095C25.0238 7.64139 24.6768 7.5254 24.3876 7.69918L22.5948 8.74185C22.4213 8.27831 22.4213 7.75695 22.5369 7.23564C22.5948 6.94608 22.4213 6.5983 22.132 6.54052C21.843 6.48253 21.4958 6.6563 21.4381 6.94608C21.2067 7.75717 21.2646 8.62604 21.5537 9.37915L19.7609 10.4218C19.4139 9.55296 19.356 8.62604 19.5874 7.69897C19.6453 7.40941 19.4718 7.06162 19.1825 7.00385C18.8935 6.94586 18.5463 7.11963 18.4886 7.4094C18.1416 8.62605 18.2572 9.90052 18.7777 11.0012L16.0594 12.5654C15.3656 11.5225 14.3245 10.9434 13.2257 10.8274V7.93072C14.4403 7.81494 15.5968 7.29337 16.4644 6.36651C16.6958 6.13474 16.6958 5.78716 16.4644 5.55542C16.2331 5.32364 15.8861 5.32364 15.6547 5.55542C14.9608 6.25053 14.0931 6.65608 13.2257 6.77206V4.68671C14.0355 4.57093 14.7873 4.16537 15.3657 3.58604C15.5971 3.35427 15.5971 3.00669 15.3657 2.77495C15.1343 2.54317 14.7873 2.54317 14.5559 2.77495C14.209 3.1225 13.7462 3.41229 13.2257 3.52805V1.09498C13.2257 0.747426 12.9366 0.515625 12.6473 0.515625C12.3583 0.515625 12.069 0.805184 12.069 1.09498V3.47006C11.5485 3.35428 11.0857 3.12251 10.7387 2.71696C10.5073 2.48518 10.1603 2.48518 9.92899 2.71696C9.69761 2.94873 9.69761 3.29631 9.92899 3.52805C10.5074 4.10741 11.2592 4.51295 12.069 4.62872V6.65624C11.2015 6.54046 10.3339 6.13491 9.63996 5.4396C9.40857 5.20783 9.06158 5.20783 8.83022 5.4396C8.59884 5.67137 8.59884 6.01895 8.83022 6.2507C9.75553 7.17755 10.9123 7.69892 12.069 7.8149V10.7116C11.0281 10.8853 10.0449 11.4067 9.35071 12.2178L6.8061 10.7696C7.32656 9.6109 7.38448 8.39447 7.09517 7.17777C7.03728 6.88821 6.6903 6.65644 6.40122 6.77222C6.11215 6.83021 5.88076 7.17777 5.99635 7.46733C6.22774 8.39419 6.16984 9.32111 5.82286 10.1902L4.03009 9.14751C4.31916 8.39441 4.37706 7.58331 4.14568 6.71444C4.08778 6.42488 3.7408 6.19311 3.45172 6.30889C3.16265 6.36688 2.93127 6.71444 3.04685 7.00401C3.16244 7.52534 3.16244 8.04668 2.98895 8.51022L0.906885 7.46733C0.617812 7.29355 0.270611 7.40933 0.0971497 7.6991C-0.0763382 7.98866 0.0392524 8.33645 0.328535 8.5102L2.4106 9.72684C2.06363 10.0744 1.65876 10.3642 1.13832 10.5379C0.849251 10.5959 0.617866 10.9435 0.733451 11.2331C0.791348 11.5806 1.13832 11.7544 1.4274 11.6386C2.23714 11.4068 2.93109 10.9435 3.45153 10.3061L5.2443 11.3488C4.66592 12.1019 3.91407 12.6232 2.98877 12.855C2.69969 12.913 2.46831 13.2606 2.58389 13.5502C2.64179 13.8397 2.98877 14.0715 3.27784 13.9557C4.49245 13.6082 5.53338 12.913 6.28522 11.9282L8.77215 13.3764C8.54119 13.8397 8.4254 14.4191 8.4254 14.9984C8.4254 15.5777 8.54098 16.157 8.77236 16.6784L6.28543 18.1266C5.59148 17.1417 4.55033 16.3886 3.27805 16.0991C2.98898 16.0411 2.64178 16.2148 2.5841 16.5046C2.52621 16.7942 2.69969 17.1419 2.98898 17.1997C3.91428 17.4315 4.72407 18.0108 5.24451 18.7059L3.45174 19.7486C2.93128 19.1113 2.23713 18.6479 1.42761 18.4161C1.13854 18.3582 0.791337 18.5319 0.73366 18.8217C0.675763 19.1113 0.849246 19.459 1.13853 19.5168C1.65899 19.6326 2.06384 19.9224 2.41081 20.3279L0.328744 21.5446C0.0396713 21.7183 -0.0761288 22.0659 0.0973591 22.3557C0.270847 22.6452 0.617817 22.7032 0.907095 22.5874L2.98916 21.3708C3.16265 21.8343 3.16265 22.3557 3.04706 22.877C2.98916 23.1666 3.16265 23.5143 3.45193 23.5721C3.74101 23.6301 4.08821 23.4563 4.14589 23.1666C4.37727 22.3555 4.31937 21.5446 4.0303 20.7335L5.82307 19.6908C6.17004 20.5019 6.22794 21.4866 5.99656 22.4137C5.93866 22.7032 6.11214 23.051 6.40143 23.1088C6.69051 23.1668 7.03771 22.993 7.09538 22.7032C7.44235 21.4288 7.32677 20.2121 6.80631 19.1115L9.35092 17.6632C10.0449 18.4743 11.0281 19.0537 12.0692 19.2274V22.4136C10.8546 22.5294 9.69811 23.1087 8.83043 23.9778C8.59905 24.2096 8.59905 24.5572 8.83043 24.7889C9.06182 25.0207 9.40882 25.0207 9.64017 24.7889C10.3341 24.0938 11.1439 23.6882 12.0692 23.5723V25.5998C11.2594 25.7156 10.5076 26.1211 9.9292 26.7005C9.69781 26.9322 9.69781 27.2798 9.9292 27.5116C10.1606 27.7433 10.5076 27.7433 10.7389 27.5116C11.0859 27.164 11.5487 26.8742 12.0692 26.7584L12.069 28.9018C12.069 29.2493 12.358 29.4811 12.6473 29.4811C12.9364 29.4811 13.2257 29.1916 13.2257 28.9018V26.8162C13.7462 26.932 14.209 27.1638 14.5559 27.5693C14.7873 27.8011 15.1343 27.8011 15.3657 27.5693C15.5971 27.3376 15.5971 26.99 15.3657 26.7582C14.7873 26.1789 14.0355 25.7733 13.2257 25.6576V23.63C14.151 23.7458 15.0185 24.1514 15.6547 24.8467C15.8861 25.0785 16.2331 25.0785 16.4644 24.8467C16.6958 24.6149 16.6958 24.2673 16.4644 24.0356C15.597 23.1667 14.4403 22.5874 13.2257 22.4714V19.2852C14.3245 19.1114 15.3656 18.5321 16.0016 17.6052L18.7199 19.1694C18.2571 20.2701 18.0836 21.5445 18.4308 22.7612C18.4887 23.1088 18.8357 23.2826 19.1248 23.1668C19.4139 23.1088 19.6453 22.7612 19.5297 22.4717C19.2983 21.5448 19.3562 20.6179 19.7032 19.7488L21.4959 20.7915C21.2069 21.5446 21.149 22.4135 21.3803 23.2246C21.4382 23.5141 21.6694 23.6881 21.9587 23.6881C22.3636 23.6881 22.6527 23.3405 22.5371 22.935C22.4215 22.4137 22.4215 21.8923 22.595 21.4288L24.3878 22.4715C24.6769 22.6452 25.0241 22.5295 25.1975 22.2397C25.3131 21.8921 25.2552 21.5446 24.9659 21.3708V21.3709ZM12.6475 18.0689C11.6066 18.0689 10.5654 17.4896 10.045 16.5627C9.75571 16.0992 9.58222 15.5778 9.58222 14.9985C9.58222 14.4192 9.75571 13.8978 10.045 13.4343C10.6234 12.5074 11.6066 11.9281 12.6475 11.9281C13.7463 11.9281 14.7875 12.5074 15.3079 13.4923C15.5393 13.9558 15.7128 14.4772 15.7128 14.9985C15.7128 15.5198 15.5972 16.0412 15.3079 16.5047C14.7874 17.4896 13.7463 18.0689 12.6475 18.0689Z" fill="#231F20"/>
</svg>
