<svg width="37" height="23" viewBox="0 0 37 23" fill="none" xmlns="http://www.w3.org/2000/svg">
<path d="M30.2792 7.1725C28.0145 7.1725 25.7138 7.20938 23.45 7.24683L17.9686 1.90875L17.9683 1.9084C17.2396 1.20344 16.318 0.85 15.359 0.85H13.1484C12.7583 0.85 12.4213 1.07071 12.215 1.36554L12.2148 1.36538L12.21 1.37324C11.997 1.72125 11.9982 2.1142 12.166 2.45739L14.5746 7.55962C12.2902 7.66896 9.97075 7.78066 7.68526 7.96308L7.16564 7.99617C7.00407 7.83044 6.72368 7.53739 6.53089 7.2758C5.87798 6.22033 4.72725 5.55378 3.49619 5.55378H3.49616L2.1329 5.55405C2.13289 5.55405 2.13288 5.55405 2.13287 5.55405C1.72649 5.55405 1.34196 5.72039 1.12406 6.07186C0.880388 6.40653 0.79929 6.78632 0.88046 7.20063L0.88038 7.20064L0.881488 7.20545L1.61823 10.4045L1.61834 10.405C2.22247 12.9891 4.33906 14.8058 6.91068 14.9991L6.91068 14.9991L6.91466 14.9993L7.68733 15.0368C9.96951 15.1824 12.2872 15.3283 14.573 15.4399L12.1291 20.5417C12.129 20.5419 12.1289 20.5421 12.1288 20.5423C11.9612 20.8855 11.9599 21.2786 12.1726 21.6267L12.1726 21.6268C12.3856 21.9748 12.7302 22.15 13.1111 22.15H15.3216C16.3196 22.15 17.2408 21.7575 17.9308 21.0917L17.9317 21.0909L23.3782 15.7512C24.9042 15.7272 26.4289 15.7355 27.9552 15.7437C28.7291 15.7479 29.5035 15.7522 30.2788 15.7522H33.0418C34.0086 15.7522 34.9008 15.317 35.4826 14.5258C36.029 13.8177 36.2657 12.8655 36.0959 11.9641L36.0991 11.9636L36.0618 11.8044C35.4199 9.06535 33.0391 7.1725 30.2792 7.1725ZM16.8727 3.0616L16.8726 3.06163L16.8753 3.0642L21.2237 7.29323C19.5691 7.33207 17.915 7.40053 16.2622 7.4695L13.8648 2.42937H15.3221C15.9116 2.42937 16.4612 2.64132 16.8727 3.0616ZM34.2242 13.5844C33.9182 13.9491 33.492 14.1724 33.0422 14.1724H30.2792C28.5216 14.1724 26.796 14.1395 25.0406 14.1043L25.5946 13.5639L25.5946 13.564L25.5971 13.5615C25.9121 13.2396 25.9121 12.7702 25.597 12.4483C25.4424 12.2904 25.2482 12.2056 25.0477 12.2056C24.8479 12.2056 24.6542 12.2899 24.4998 12.447L16.8751 19.8598L16.8751 19.8597L16.8725 19.8624C16.4611 20.2827 15.9113 20.4946 15.3219 20.4946H13.8665L17.4091 13.1835C17.4092 13.1835 17.4092 13.1834 17.4092 13.1833C17.5877 12.8182 17.4611 12.3103 17.0478 12.1183C16.6356 11.8888 16.1783 12.0802 15.9976 12.4498L15.997 12.4511L15.3397 13.8292C12.8322 13.7168 10.3248 13.568 7.81746 13.3823L7.81746 13.3823L7.81365 13.3821L7.04201 13.3446C5.15656 13.1985 3.59085 11.8538 3.16338 9.96142L3.1634 9.96141L3.16287 9.95923L2.47089 7.09585H3.53283C4.25121 7.09585 4.86751 7.4424 5.28405 8.11601L5.28802 8.12243L5.29261 8.12842C5.82864 8.82712 6.19058 9.1913 6.46 9.37477C6.59691 9.46801 6.71459 9.51789 6.82298 9.53913C6.92825 9.55977 7.01487 9.55125 7.08374 9.54145L7.85043 9.50426L7.85043 9.50429L7.85375 9.50406C15.2915 8.97747 22.8401 8.7518 30.3158 8.7518C32.3408 8.7518 34.0865 10.1655 34.5891 12.168C34.656 12.6609 34.5498 13.1778 34.251 13.551L34.2242 13.5844Z" fill="#191919" stroke="#191919" stroke-width="0.3"/>
</svg>
