<svg width="18" height="26" viewBox="0 0 18 26" fill="none" xmlns="http://www.w3.org/2000/svg">
<path d="M16.7472 10.1404C16.7472 10.1404 16.7471 10.1404 16.7471 10.1404H15.9781V8C15.9781 4.05363 12.9464 0.85 9.17994 0.85C5.41358 0.85 2.38182 4.05357 2.38182 8V10.1404H1.61268C1.18562 10.1404 0.85 10.5053 0.85 10.9355V24.3549C0.85 24.7852 1.18564 25.15 1.61268 25.15H16.8084C17.2354 25.15 17.5711 24.7852 17.5711 24.3549V10.9355V10.9227L17.5689 10.91C17.4987 10.5043 17.1765 10.1405 16.7472 10.1404ZM3.84618 8.11786H3.8767V7.96786C3.8767 4.88265 6.26718 2.40812 9.14942 2.40812C12.0612 2.40812 14.4221 4.91372 14.4221 7.96786V10.1083H3.84618V8.11786ZM11.9034 16.1614H11.9035L11.9032 16.1552C11.8392 14.6016 10.6495 13.334 9.14936 13.334C7.64993 13.334 6.45653 14.602 6.45653 16.1614C6.45653 17.3134 7.12286 18.3096 8.08027 18.744V20.6453C8.08027 21.2691 8.56913 21.7952 9.17994 21.7952C9.79078 21.7952 10.2796 21.2691 10.2796 20.6453V18.744C11.237 18.3098 11.9034 17.3133 11.9034 16.1614ZM2.31424 23.5275V11.7308H15.9845V23.5275H2.31424ZM9.14936 17.3984C8.50409 17.3984 7.9821 16.86 7.9821 16.1615C7.9821 15.4627 8.50427 14.9245 9.14936 14.9245C9.79464 14.9245 10.3166 15.4629 10.3166 16.1615C10.3166 16.86 9.79464 17.3984 9.14936 17.3984Z" fill="#191919" stroke="#191919" stroke-width="0.3"/>
</svg>
