<svg width="22" height="22" viewBox="0 0 22 22" fill="none" xmlns="http://www.w3.org/2000/svg">
<path fill-rule="evenodd" clip-rule="evenodd" d="M17.0264 18.9809C19.4403 17.1553 21 14.2598 21 11C21 5.47715 16.5228 1 11 1C5.47715 1 1 5.47715 1 11C1 14.2598 2.55974 17.1553 4.97363 18.9809C6.24007 16.8959 8.45866 15.5 11 15.5C13.5413 15.5 15.7599 16.8959 17.0264 18.9809ZM16.1985 19.5442C15.1023 17.7057 13.1764 16.5 11 16.5C8.82362 16.5 6.89772 17.7057 5.80146 19.5442C7.31629 20.4679 9.096 21 11 21C12.904 21 14.6837 20.4679 16.1985 19.5442ZM11 22C17.0751 22 22 17.0751 22 11C22 4.92487 17.0751 0 11 0C4.92487 0 0 4.92487 0 11C0 17.0751 4.92487 22 11 22ZM11 6.53711C9.067 6.53711 7.5 8.10411 7.5 10.0371C7.5 11.9701 9.067 13.5371 11 13.5371C12.933 13.5371 14.5 11.9701 14.5 10.0371C14.5 8.10411 12.933 6.53711 11 6.53711ZM6.5 10.0371C6.5 7.55183 8.51472 5.53711 11 5.53711C13.4853 5.53711 15.5 7.55183 15.5 10.0371C15.5 12.5224 13.4853 14.5371 11 14.5371C8.51472 14.5371 6.5 12.5224 6.5 10.0371Z" fill="#191919"/>
</svg>
