<svg width="93" height="67" viewBox="0 0 93 67" fill="none" xmlns="http://www.w3.org/2000/svg">
<path d="M87.518 0.390625H5.48195C2.44738 0.390625 0 2.87555 0 5.95668V60.8239C0 63.905 2.44738 66.3899 5.48195 66.3899H87.518C90.5526 66.3899 93 63.905 93 60.8239V5.95668C93 2.87484 90.5526 0.390625 87.518 0.390625ZM31.522 11.2254L34.0671 11.0264L35.0464 8.64074C35.144 8.44175 35.34 8.3426 35.536 8.3426C35.732 8.3426 35.9273 8.44175 36.0256 8.64074L37.0048 11.0264L39.5499 11.2254C39.7459 11.2254 39.9412 11.4244 40.0396 11.6227C40.1372 11.8217 40.0395 12.02 39.8436 12.219L37.8858 13.9087L38.4731 16.3936C38.5708 16.5926 38.4731 16.7909 38.2771 16.9899C38.0811 17.089 37.8858 17.089 37.6899 16.9899L35.5362 15.5983L33.3825 16.9899C33.2848 16.9899 33.1865 17.089 33.0888 17.089C32.9912 17.089 32.8929 17.089 32.7952 16.9899C32.5992 16.8907 32.5016 16.6917 32.5992 16.4927L33.1865 14.0078L31.2288 12.3181C31.0328 12.219 31.0328 11.9209 31.0328 11.7219C31.1304 11.3246 31.3261 11.2254 31.522 11.2254ZM31.522 22.6557L34.0671 22.4568L35.0464 20.071C35.144 19.8721 35.34 19.7729 35.536 19.7729C35.732 19.7729 35.9273 19.8721 36.0256 20.071L37.0048 22.4568L39.5499 22.6557C39.7459 22.6557 39.9412 22.8547 40.0396 23.053C40.1372 23.252 40.0395 23.4503 39.8436 23.6493L37.8858 25.339L38.4731 27.8239C38.5708 28.0229 38.4731 28.2212 38.2771 28.4202C38.0811 28.5193 37.8858 28.5193 37.6899 28.4202L35.5362 27.0286L33.3825 28.4202C33.2841 28.4209 33.1865 28.4209 33.0888 28.4209C32.9912 28.4209 32.8929 28.4209 32.7952 28.3217C32.5992 28.2226 32.5016 28.0236 32.5992 27.7254L33.1865 25.2405L31.2288 23.5508C31.0328 23.4517 31.0328 23.1536 31.0328 22.9546C31.1304 22.7549 31.3261 22.6557 31.522 22.6557ZM19.7748 11.2254L22.3199 11.0264L23.2991 8.64074C23.3968 8.44175 23.5928 8.3426 23.7888 8.3426C23.9847 8.3426 24.18 8.44175 24.2784 8.64074L25.2576 11.0264L27.8027 11.2254C27.9987 11.2254 28.194 11.4244 28.2923 11.6227C28.39 11.8217 28.2923 12.02 28.0963 12.219L26.1386 13.9087L26.7259 16.3936C26.8235 16.5926 26.7259 16.7909 26.5299 16.9899C26.4322 17.089 26.3339 17.089 26.2363 17.089C26.1386 17.089 26.0403 17.089 25.9426 16.9899L23.7889 15.5983L21.6352 16.9899C21.5376 17.089 21.244 17.089 21.048 16.9899C20.852 16.8907 20.7543 16.6917 20.852 16.4927L21.4393 14.0078L19.4815 12.3181C19.2855 12.219 19.2855 11.9209 19.2855 11.7219C19.3832 11.3246 19.5788 11.2254 19.7748 11.2254ZM19.7748 22.6557L22.3199 22.4568L23.2991 20.071C23.3968 19.8721 23.5928 19.7729 23.7888 19.7729C23.9847 19.7729 24.18 19.8721 24.2784 20.071L25.2576 22.4568L27.8027 22.6557C27.9987 22.6557 28.194 22.8547 28.2923 23.053C28.39 23.252 28.2923 23.4503 28.0963 23.6493L26.1386 25.339L26.7259 27.8239C26.7259 28.0229 26.7259 28.2212 26.5299 28.4202C26.3339 28.5193 26.1386 28.5193 25.9426 28.4202L23.7889 27.0286L21.6352 28.4202C21.5376 28.4202 21.4393 28.5193 21.3416 28.5193C21.244 28.5193 21.1456 28.5193 21.048 28.4202C20.852 28.321 20.7543 28.122 20.852 27.8239L21.4393 25.339L19.4815 23.6493C19.2855 23.5502 19.2855 23.252 19.2855 23.053C19.3832 22.7549 19.5788 22.6557 19.7748 22.6557ZM8.12512 11.2254L10.6702 11.0264L11.6494 8.64074C11.7471 8.44175 11.9431 8.3426 12.1391 8.3426C12.335 8.3426 12.5303 8.44175 12.6287 8.64074L13.6079 11.0264L16.153 11.2254C16.349 11.2254 16.5443 11.4244 16.6426 11.6227C16.7403 11.8217 16.6426 12.02 16.4466 12.219L14.4889 13.9087L15.0762 16.3936C15.0762 16.5926 15.0762 16.7909 14.8802 16.8907C14.6842 16.9899 14.4889 16.9899 14.2929 16.8907L12.1392 15.4992L9.98555 16.8907C9.8879 16.8907 9.78956 16.9899 9.69191 16.9899C9.59426 16.9899 9.49593 16.9899 9.39828 16.8907C9.2023 16.7916 9.2023 16.5926 9.2023 16.3936L9.78956 13.9087L7.83184 12.219C7.63585 12.1199 7.63585 11.8217 7.63585 11.6227C7.7335 11.3246 7.83148 11.2254 8.12512 11.2254ZM8.12512 22.6557L10.6702 22.4568L11.6494 20.071C11.8454 19.6738 12.4327 19.6738 12.6287 20.071L13.6079 22.4568L16.153 22.6557C16.349 22.6557 16.5443 22.8547 16.6426 23.053C16.7403 23.252 16.6426 23.4503 16.4466 23.6493L14.4889 25.339L15.0762 27.8239C15.0762 28.0229 15.0762 28.2212 14.8802 28.4202C14.6842 28.5193 14.4889 28.5193 14.2929 28.4202L12.1392 27.0286L9.98555 28.4202C9.8879 28.4202 9.78956 28.5193 9.69191 28.5193C9.59426 28.5193 9.49593 28.5193 9.39828 28.4202C9.2023 28.321 9.10465 28.122 9.2023 27.8239L9.78956 25.339L7.83184 23.6493C7.63585 23.5502 7.63585 23.252 7.63585 23.053C7.7335 22.7549 7.83148 22.6557 8.12512 22.6557ZM7.14617 59.1345V51.6797H85.9517V59.1345H7.14617ZM7.14617 44.4239V36.9691H85.9517V44.4239H7.14617ZM85.8538 29.8125H47.5768V22.3577H85.8538V29.8125ZM85.8538 15.1019H47.5768V7.64714H85.8538V15.1019Z" fill="#191919"/>
</svg>
