<svg width="29" height="30" viewBox="0 0 29 30" fill="none" xmlns="http://www.w3.org/2000/svg">
<path d="M14.6519 8.55501C11.1881 8.55501 8.36376 11.4483 8.36376 14.9966C8.36376 18.5449 11.1881 21.442 14.6519 21.442C18.1156 21.442 20.9437 18.5449 20.9437 14.9966C20.9437 11.4483 18.1156 8.55501 14.6519 8.55501ZM14.6519 10.1372C17.2824 10.1372 19.3992 12.3019 19.3992 14.9967C19.3992 17.6914 17.2825 19.86 14.6519 19.86C12.0213 19.86 9.9082 17.6915 9.9082 14.9967C9.9082 12.3019 12.0212 10.1372 14.6519 10.1372Z" fill="#231F20"/>
<path d="M14.6519 0.515635C14.2264 0.515984 13.8816 0.869138 13.8813 1.30465V6.33125C13.8816 6.76711 14.2264 7.11992 14.6519 7.12061C14.8566 7.12131 15.0535 7.03861 15.1986 6.8903C15.3441 6.74234 15.4258 6.54133 15.4258 6.33125V1.30465C15.4258 1.09492 15.3441 0.893563 15.1986 0.745605C15.0535 0.597646 14.8566 0.51459 14.6519 0.515635Z" fill="#231F20"/>
<path d="M24.1051 4.52683C23.9004 4.52613 23.7038 4.60849 23.5587 4.75611L20.0902 8.30928C19.9448 8.45759 19.8633 8.65895 19.8633 8.86902C19.8633 9.07946 19.9448 9.28081 20.0902 9.42912C20.235 9.57778 20.4316 9.66153 20.6366 9.66153C20.8417 9.66153 21.0386 9.57778 21.183 9.42912L24.6515 5.87595C24.797 5.72763 24.8788 5.52627 24.8788 5.3162C24.8788 5.10612 24.797 4.90441 24.6515 4.75611C24.5064 4.6085 24.3099 4.52614 24.1051 4.52683Z" fill="#231F20"/>
<path d="M23.1145 14.2073C22.689 14.2077 22.3442 14.5608 22.3439 14.9963C22.3432 15.2064 22.424 15.4078 22.5684 15.5568C22.7132 15.7054 22.9094 15.7892 23.1145 15.7895H28.0175H28.0172C28.2229 15.7902 28.4202 15.7068 28.5656 15.5582C28.7111 15.4092 28.7922 15.2071 28.7915 14.9963C28.7911 14.7866 28.7094 14.5852 28.5643 14.4373C28.4191 14.289 28.2222 14.2063 28.0172 14.2073H23.1145Z" fill="#231F20"/>
<path d="M20.636 20.3376C20.4313 20.3369 20.2347 20.4192 20.0896 20.5672C19.9442 20.7151 19.8627 20.9169 19.8627 21.1269C19.8627 21.337 19.9442 21.5384 20.0896 21.6867L23.5581 25.2399C23.7029 25.3885 23.8995 25.4723 24.1045 25.4723C24.3096 25.4723 24.5065 25.3885 24.6509 25.2399C24.7964 25.0915 24.8781 24.8902 24.8781 24.6801C24.8781 24.47 24.7964 24.2683 24.6509 24.1204L21.1824 20.5672C21.0373 20.4192 20.8408 20.3369 20.636 20.3376Z" fill="#231F20"/>
<path d="M14.6519 22.8765C14.2264 22.8769 13.8816 23.23 13.8813 23.6655V28.6883C13.8806 28.898 13.9613 29.0997 14.1058 29.2484C14.2506 29.3974 14.4468 29.4811 14.6519 29.4811C14.8573 29.4822 15.0545 29.3988 15.2 29.2498C15.3454 29.1011 15.4265 28.8987 15.4258 28.6883V23.6655C15.4258 23.4554 15.3441 23.2544 15.1986 23.1065C15.0535 22.9582 14.8566 22.8755 14.6519 22.8765Z" fill="#231F20"/>
<path d="M8.12438 20.5672L4.65588 24.1203C4.51042 24.2683 4.42866 24.47 4.42866 24.6801C4.42866 24.8902 4.51042 25.0915 4.65588 25.2398C4.80066 25.3885 4.99722 25.4722 5.20229 25.4722C5.40735 25.4722 5.60392 25.3885 5.74869 25.2398L9.21719 21.6867C9.36265 21.5383 9.44441 21.337 9.44441 21.1269C9.44441 20.9168 9.36265 20.7151 9.21719 20.5672C9.07241 20.4181 8.87585 20.3344 8.67078 20.3344C8.46571 20.3344 8.26915 20.4181 8.12438 20.5672Z" fill="#231F20"/>
<path d="M1.28993 14.2073C1.08486 14.2063 0.888301 14.289 0.742848 14.4373C0.597726 14.5852 0.515969 14.7866 0.515629 14.9963C0.514948 15.2071 0.596364 15.4092 0.741479 15.5582C0.886941 15.7068 1.08418 15.7902 1.28993 15.7895H6.193C6.39773 15.7892 6.59429 15.7054 6.73872 15.5568C6.88316 15.4078 6.96389 15.2064 6.96321 14.9963C6.96287 14.5608 6.61813 14.2077 6.193 14.2073H1.28993Z" fill="#231F20"/>
<path d="M4.65614 4.75643C4.51068 4.90474 4.42892 5.10645 4.42892 5.31652C4.42892 5.5266 4.51068 5.72796 4.65614 5.87627L8.12464 9.42944C8.26942 9.5781 8.46598 9.66186 8.67105 9.66186C8.87612 9.66186 9.07268 9.5781 9.21745 9.42944C9.36292 9.28112 9.44467 9.07977 9.44467 8.86934C9.44467 8.65926 9.36292 8.45791 9.21745 8.3096L5.74895 4.75643C5.60417 4.60776 5.40761 4.52401 5.20255 4.52401C4.99748 4.52401 4.80091 4.60776 4.65614 4.75643Z" fill="#231F20"/>
</svg>
