<?xml version="1.0" standalone="no"?>
<!DOCTYPE svg PUBLIC "-//W3C//DTD SVG 20010904//EN"
 "http://www.w3.org/TR/2001/REC-SVG-20010904/DTD/svg10.dtd">
<svg version="1.0" xmlns="http://www.w3.org/2000/svg"
 width="700.000000pt" height="700.000000pt" viewBox="0 0 700.000000 700.000000"
 preserveAspectRatio="xMidYMid meet">
<metadata>
Created by potrace 1.14, written by Peter Selinger 2001-2017
</metadata>
<g transform="translate(0.000000,700.000000) scale(0.100000,-0.100000)"
fill="#000000" stroke="none">
<path d="M2145 6993 c-26 -3 -157 -23 -250 -39 -217 -37 -615 -207 -890 -382
-173 -110 -418 -324 -511 -446 -16 -21 -37 -48 -48 -60 -38 -44 -145 -215
-188 -301 -79 -156 -172 -420 -184 -518 -2 -16 -6 -32 -8 -36 -8 -12 -45 -252
-53 -341 -15 -170 -8 -582 12 -680 6 -30 13 -68 20 -112 3 -18 8 -41 11 -50 3
-9 7 -27 9 -40 37 -201 184 -575 328 -833 74 -133 264 -421 331 -502 8 -10 47
-58 86 -107 245 -309 610 -669 920 -910 69 -54 132 -103 140 -109 8 -7 38 -28
65 -47 28 -19 52 -38 55 -41 3 -3 100 -71 215 -153 116 -81 218 -154 228 -162
9 -7 21 -14 25 -14 5 0 17 -8 28 -18 11 -9 27 -21 36 -27 8 -5 179 -119 379
-253 200 -133 371 -246 379 -252 26 -17 403 -261 470 -305 99 -64 164 -106
288 -184 l112 -71 143 102 c78 56 147 106 152 110 6 4 174 131 375 281 366
273 503 378 810 622 512 407 751 624 923 840 254 317 383 621 432 1020 12 104
15 591 2 612 -2 4 -7 36 -11 70 -17 166 -110 409 -210 552 -20 28 -36 53 -36
56 0 3 -27 39 -60 79 -261 322 -622 559 -1025 675 -91 26 -185 47 -250 56 -11
1 -45 6 -75 10 -80 10 -284 13 -370 4 -70 -7 -95 -10 -195 -24 -22 -3 -58 -10
-80 -16 -22 -6 -47 -12 -55 -14 -57 -11 -159 -42 -240 -72 -403 -150 -659
-422 -696 -738 l-6 -50 24 20 c12 11 25 22 28 25 31 31 153 128 220 176 377
266 756 375 1180 340 46 -4 87 -9 90 -11 3 -2 24 -6 46 -9 220 -33 520 -155
709 -289 139 -98 307 -314 399 -512 48 -102 54 -118 81 -200 55 -166 79 -314
79 -490 0 -178 -14 -265 -70 -437 -80 -244 -246 -470 -582 -788 -141 -134
-175 -165 -282 -255 -52 -44 -97 -82 -100 -86 -14 -15 -363 -289 -485 -380
-155 -115 -165 -123 -268 -194 -40 -27 -77 -55 -84 -61 -6 -6 -124 -86 -261
-178 l-250 -167 -230 145 c-902 568 -1465 948 -1742 1175 -393 322 -778 729
-1035 1096 -258 368 -431 754 -485 1079 -66 398 4 823 204 1236 136 280 333
536 562 730 215 182 489 313 759 365 126 23 414 24 530 0 11 -3 38 -7 59 -10
111 -15 300 -74 426 -133 88 -40 214 -112 218 -124 2 -4 8 -8 14 -8 15 0 134
-95 211 -169 58 -56 106 -114 201 -246 l15 -20 -4 20 c-2 11 -6 56 -9 100 -19
285 -109 529 -254 687 -140 152 -569 327 -912 373 -25 3 -61 8 -80 11 -40 7
-409 12 -455 7z"/>
</g>
</svg>
