<svg width="30" height="30" viewBox="0 0 30 30" fill="none" xmlns="http://www.w3.org/2000/svg">
<path d="M15 0.000160626C11.0217 0.000160626 7.20629 1.58062 4.39362 4.39376C1.58047 7.20658 0 11.0219 0 15.0001C0 18.9782 1.58047 22.7937 4.39362 25.6064C7.20645 28.4195 11.0218 30 15 30C18.9782 30 22.7937 28.4195 25.6064 25.6064C28.4195 22.7936 30 18.9782 30 15.0001C30 12.3671 29.3069 9.78033 27.9901 7.5002C26.6736 5.21975 24.7802 3.32638 22.4998 2.00989C20.2196 0.693079 17.6328 0 14.9998 0L15 0.000160626ZM22.0762 20.2991L20.3024 22.0729L15.0001 16.7628L9.70123 22.0764L7.92742 20.3026L13.2376 15.0003L7.92396 9.7015L9.69777 7.9277L15.0001 13.2379L20.2989 7.92424L22.0727 9.69804L16.7626 15.0003L22.0762 20.2991Z" fill="#090909"/>
</svg>
