<svg width="35" height="30" viewBox="0 0 35 30" fill="none" xmlns="http://www.w3.org/2000/svg">
<path fill-rule="evenodd" clip-rule="evenodd" d="M17.0721 0C21.4155 0 25.7723 1.66595 29.0787 4.95702L29.1181 4.99763C29.1311 5.00963 29.1444 5.02394 29.1444 5.03699C32.4366 8.32951 34.077 12.6324 34.1044 16.9479C34.1044 16.9858 34.1176 17.0133 34.1176 17.0527C34.1176 17.0908 34.1044 17.1184 34.0913 17.1577C34.065 21.0667 32.7135 24.9756 30.0103 28.136C29.7347 28.4639 29.433 28.792 29.118 29.1081C28.8031 29.4229 28.4881 29.7102 28.1602 30L26.2968 28.136C26.9661 27.5733 27.596 26.9568 28.1602 26.2878C28.3438 26.0647 28.5145 25.8404 28.685 25.6057C28.8031 25.4613 28.8949 25.317 28.9869 25.1728C29.3543 24.6479 29.6692 24.0972 29.9579 23.5329C30.1023 23.2444 30.2335 22.9689 30.3646 22.6659C30.509 22.3131 30.6535 21.9457 30.7716 21.5654C30.8634 21.2636 30.9551 20.962 31.0339 20.6602C31.0602 20.5815 31.0863 20.4897 31.0996 20.411C31.165 20.0949 31.2307 19.7813 31.2831 19.4535C31.3488 19.0993 31.3882 18.7306 31.4276 18.3646H26.2444V15.7411H31.4276C31.3882 15.3739 31.3488 15.0066 31.2831 14.6525C31.2307 14.3244 31.165 13.9965 31.0863 13.6686C31.0733 13.5886 31.0602 13.5242 31.0339 13.4455C30.9551 13.1439 30.8634 12.8421 30.7716 12.5403C30.6665 12.1994 30.5354 11.8583 30.3909 11.5304C30.2598 11.188 30.1154 10.8601 29.9448 10.5465C29.7874 10.2186 29.6036 9.90375 29.42 9.6007C29.2362 9.28733 29.0394 8.98554 28.828 8.69703C28.8162 8.68378 28.8162 8.66947 28.8162 8.66947C28.6063 8.3822 28.3832 8.09348 28.147 7.81817L26.2838 9.69392L24.486 11.4909L22.6226 9.62824L24.4205 7.83121L26.2969 5.9685C26.0213 5.73238 25.7326 5.50803 25.4438 5.29947C25.4438 5.29947 25.4308 5.29947 25.4177 5.28516C25.1289 5.07639 24.8272 4.87983 24.5122 4.69608C24.2103 4.51235 23.8954 4.32884 23.5674 4.17142C23.2788 4.02579 22.9769 3.88268 22.6752 3.75031C22.3209 3.6072 21.9533 3.46304 21.5729 3.34498C21.271 3.25322 20.9693 3.16125 20.6674 3.08254C20.5887 3.05644 20.523 3.04192 20.4442 3.03014C20.1162 2.95143 19.7882 2.88451 19.4602 2.83337C19.1059 2.76644 18.7385 2.71404 18.371 2.689V7.87057H15.7466V2.689C15.3779 2.71404 15.0118 2.76644 14.6575 2.83337C14.3295 2.88451 14.0013 2.95143 13.6733 3.03014C13.5946 3.04192 13.5289 3.05644 13.4502 3.08254C13.1485 3.16125 12.8466 3.25322 12.5449 3.34498C12.1643 3.46304 11.7969 3.6072 11.4413 3.75031C11.1407 3.88268 10.839 4.02579 10.5501 4.17142C10.2221 4.32884 9.90718 4.51235 9.60553 4.69608C9.29058 4.87981 8.9887 5.07637 8.70004 5.28516C8.68678 5.29947 8.67373 5.29947 8.67373 5.29947C8.3851 5.50803 8.09647 5.73238 7.8209 5.9685L9.6973 7.83121L11.4949 9.62824L9.6316 11.4909L7.83265 9.69392L5.97054 7.81817C5.73433 8.1067 5.49812 8.40827 5.28823 8.71009C4.85518 9.31344 4.48779 9.94315 4.15963 10.5846C3.94847 11.003 3.76615 11.4386 3.59541 11.878C3.47604 12.1929 3.37625 12.513 3.2792 12.8316C3.23856 12.9642 3.1952 13.0953 3.15856 13.2291C3.06404 13.5781 2.98257 13.9283 2.91436 14.2812C2.89478 14.3822 2.87772 14.4845 2.8592 14.5868C2.79373 14.9698 2.73731 15.3541 2.7032 15.7411H7.87331V18.3646H2.7032C2.73457 18.7095 2.7792 19.0519 2.83562 19.3943C2.83962 19.4166 2.84362 19.4377 2.84741 19.4587C3.01541 20.4569 3.28972 21.4393 3.66634 22.3903C3.70444 22.4876 3.74381 22.5818 3.78444 22.6763C4.14128 23.5251 4.58612 24.3435 5.1137 25.1228C5.20949 25.2645 5.30528 25.4036 5.40506 25.5412C5.57033 25.7683 5.74085 25.9939 5.9219 26.2115C5.93895 26.2313 5.95601 26.2508 5.97453 26.2706L7.83266 24.4105L9.64486 22.6134L11.495 24.4774L7.83266 28.1359L7.82087 28.1504L5.97056 29.9999C5.64256 29.7244 5.31455 29.4228 4.99959 29.108C4.68465 28.7919 4.38277 28.4638 4.10715 28.1359C1.39098 24.976 0.0393533 21.0539 0.0130528 17.1317C0.0130528 17.1054 0 17.0793 0 17.053C0 17.0269 0.0130528 17.0006 0.0130528 16.9861C0.0261055 12.6455 1.67958 8.31692 4.98628 5.01002C4.98628 5.01002 4.98628 4.99802 4.99955 4.99802C4.99955 4.98498 5.0126 4.98498 5.0126 4.98498C8.34565 1.66633 12.7023 0.000373899 17.0456 0.000373899L17.0721 0ZM17.0321 15.1763L26.2831 24.4112C25.7319 25.1065 25.1153 25.723 24.4197 26.2609L15.1817 17.026L17.0321 15.1763Z" fill="#090909"/>
</svg>
