<svg width="30" height="30" viewBox="0 0 30 30" fill="none" xmlns="http://www.w3.org/2000/svg">
<path d="M9.76636 9.76636V0.343404C9.76636 0.151139 9.9175 0 10.1098 0H29.6566C29.8489 0 30 0.151139 30 0.343404V19.8902C30 20.0825 29.8489 20.2336 29.6566 20.2336H20.2336V29.6566C20.2336 29.8489 20.0825 30 19.8902 30H0.343405C0.151139 30 0 29.8489 0 29.6566V10.1098C0 9.9175 0.151139 9.76636 0.343405 9.76636H9.76636ZM19.5332 10.4668H10.4673V19.5327H19.5332V10.4668ZM19.5332 20.2337H10.1103C9.91801 20.2337 9.76688 20.0825 9.76688 19.8903V10.4673H0.700927V29.3001H19.5338V20.2342L19.5332 20.2337Z" fill="#090909"/>
</svg>
