<svg width="21" height="22" viewBox="0 0 21 22" fill="none" xmlns="http://www.w3.org/2000/svg">
<path fill-rule="evenodd" clip-rule="evenodd" d="M20.9999 9.96289C20.9999 14.9335 16.9705 18.9629 11.9999 18.9629C9.70357 18.9629 7.60807 18.1029 6.01798 16.6873L1.35223 21.3184C1.15625 21.513 0.839666 21.5118 0.645132 21.3158C0.450599 21.1198 0.451778 20.8032 0.647766 20.6087L5.30891 15.9822C3.8735 14.3876 2.99993 12.2773 2.99993 9.96289C2.99993 4.99233 7.02937 0.962891 11.9999 0.962891C16.9705 0.962891 20.9999 4.99233 20.9999 9.96289ZM19.9999 9.96289C19.9999 14.3812 16.4182 17.9629 11.9999 17.9629C7.58165 17.9629 3.99993 14.3812 3.99993 9.96289C3.99993 5.54461 7.58165 1.96289 11.9999 1.96289C16.4182 1.96289 19.9999 5.54461 19.9999 9.96289Z" fill="#191919"/>
</svg>
