<svg width="80" height="125" viewBox="0 0 80 125" fill="none" xmlns="http://www.w3.org/2000/svg">
<ellipse cx="12.5" cy="118.5" rx="12.5" ry="1.5" fill="#C9C9C9"/>
<ellipse cx="67.5" cy="118.5" rx="12.5" ry="1.5" fill="#C9C9C9"/>
<path d="M12.5225 80.5587C15.2678 80.5587 16.7886 82.161 17.2059 82.9622C17.2059 82.3343 17.0548 81.0783 16.3857 80.3421C15.7167 79.6059 12.6736 78.2488 9.5657 79.5264C6.45784 80.804 4.55859 82.9622 4.55859 87.0548C4.55859 91.1474 7.76063 94.4587 9.54412 96.0412C11.1628 97.4776 15.8606 100.502 18.1771 101.974C19.5583 100.993 22.8345 98.5791 24.8892 96.7775C27.4575 94.5255 27.6733 92.4393 27.4791 90.1369C27.2483 87.4013 23.8532 84.6946 20.2058 85.3442C16.5584 85.9938 16.6231 88.2675 16.6447 88.2675C19.7094 85.3658 22.7094 86.5135 24.0475 87.358C25.3856 88.2025 26.8963 91.1908 25.3856 93.6593C24.177 95.6341 20.0763 98.5387 18.1771 99.7441C16.9253 98.9645 14.0419 97.1326 12.5225 96.0412C10.6232 94.677 6.85911 91.1846 6.65208 87.6612C6.45784 84.3553 9.09089 80.5587 12.5225 80.5587Z" fill="#C9C9C9"/>
<path d="M3.50681 48.8378L29.7253 48.8378M29.7253 48.8378C29.8917 48.8378 30.0267 48.9834 30.0267 49.163L30.0267 54.53C30.0267 54.9791 29.6894 55.3432 29.2733 55.3432C28.8572 55.3432 28.5199 55.7072 28.5199 56.1563L28.5199 56.8371C28.5199 57.1964 28.7897 57.4877 29.1226 57.4877C29.4555 57.4877 29.7253 57.7789 29.7253 58.1382L29.7253 59.7083C29.7253 59.9777 29.5229 60.1962 29.2733 60.1962C29.0236 60.1962 28.8212 60.4146 28.8212 60.6841L28.8212 61.3044C28.8212 62.3331 29.226 62.77 29.7253 62.77M29.7253 48.8378C29.5589 48.8378 29.4239 48.6921 29.4239 48.5125L29.4239 24.1173C29.4239 22.6802 28.2773 21.5832 27.1069 20.898C24.6368 19.4519 23.6981 15.8311 23.6981 14.0339C23.6981 11.7571 23.0953 10.7812 22.1913 10.7812L10.7395 10.7812C9.83541 10.7812 9.23269 11.7571 9.23269 14.0339C9.23269 15.8311 8.29399 19.4519 5.82385 20.898C4.65344 21.5832 3.50681 22.6802 3.50681 24.1173L3.50681 48.5125C3.50681 48.6921 3.37189 48.8378 3.20545 48.8378C3.03901 48.8378 2.90409 48.9834 2.90409 49.163L2.90409 54.53C2.90409 54.9791 3.2414 55.3432 3.65749 55.3432C4.07359 55.3432 4.4109 55.7072 4.4109 56.1563L4.4109 56.8371C4.4109 57.1964 4.14105 57.4877 3.80817 57.4877C3.4753 57.4877 3.20545 57.7789 3.20545 58.1382L3.20545 59.7083C3.20545 59.9777 3.40784 60.1962 3.65749 60.1962C3.90715 60.1962 4.10953 60.4146 4.10953 60.6841L4.10953 61.3044C4.10953 62.3331 3.70476 62.77 3.20545 62.77L3.05477 62.77C2.47224 62.77 2 63.2797 2 63.9084L2 112.096C2 113.056 2.25364 113.997 2.73118 114.807C3.58966 116.263 5.07787 117.144 6.6769 117.144L17.6708 117.144M3.50681 55.3432L29.7253 55.3432M3.50681 62.77L29.7253 62.77M29.7253 62.77L29.876 62.77C30.4585 62.77 30.9308 63.2797 30.9308 63.9084L30.9308 112.096C30.9308 113.056 30.6771 113.997 30.1996 114.807C29.3411 116.263 27.8529 117.144 26.2539 117.144L15.2599 117.144M3.50681 60.1962L29.7253 60.1962M3.50681 57.8129L29.7253 57.8129" stroke="#191919" stroke-width="2" stroke-linecap="round" stroke-linejoin="round"/>
<path d="M29.2715 55.3432L3.65575 55.3432C3.23965 55.3432 2.90234 54.9791 2.90234 54.53L2.90234 49.163C2.90234 48.9834 3.03727 48.8378 3.20371 48.8378C3.37014 48.8378 3.50507 48.6921 3.50507 48.5125L3.50507 24.1173C3.50507 22.6802 4.65169 21.5832 5.82211 20.898C8.29224 19.4519 9.23095 15.8311 9.23095 14.0339C9.23095 11.7571 9.83367 10.7812 10.7378 10.7812L22.1895 10.7812C23.0936 10.7812 23.6963 11.7571 23.6963 14.0339C23.6963 15.8311 24.635 19.4519 27.1052 20.898C28.2756 21.5832 29.4222 22.6802 29.4222 24.1173L29.4222 48.5125C29.4222 48.6921 29.5571 48.8378 29.7236 48.8378C29.89 48.8378 30.0249 48.9834 30.0249 49.163L30.0249 54.53C30.0249 54.9791 29.6876 55.3432 29.2715 55.3432Z" fill="#191919"/>
<path d="M3.50507 48.8378L29.7236 48.8378M29.7236 48.8378C29.89 48.8378 30.0249 48.9834 30.0249 49.163L30.0249 54.53C30.0249 54.9791 29.6876 55.3432 29.2715 55.3432L3.65575 55.3432C3.23965 55.3432 2.90234 54.9791 2.90234 54.53L2.90234 49.163C2.90234 48.9834 3.03727 48.8378 3.20371 48.8378C3.37014 48.8378 3.50507 48.6921 3.50507 48.5125L3.50507 24.1173C3.50507 22.6802 4.65169 21.5832 5.82211 20.898C8.29224 19.4519 9.23095 15.8311 9.23095 14.0339C9.23095 11.7571 9.83367 10.7812 10.7378 10.7812L22.1895 10.7812C23.0936 10.7812 23.6963 11.7571 23.6963 14.0339C23.6963 15.8311 24.635 19.4519 27.1052 20.898C28.2756 21.5832 29.4222 22.6802 29.4222 24.1173L29.4222 48.5125C29.4222 48.6921 29.5571 48.8378 29.7236 48.8378ZM3.50507 55.3432L29.7236 55.3432" stroke="#191919" stroke-width="2" stroke-linecap="round" stroke-linejoin="round"/>
<path d="M32 70H2" stroke="#191919" stroke-width="2"/>
<path d="M32 110H2" stroke="#191919" stroke-width="2"/>
<path d="M59.5225 80.5587C62.2678 80.5587 63.7886 82.161 64.2059 82.9622C64.2059 82.3343 64.0548 81.0783 63.3857 80.3421C62.7167 79.6059 59.6736 78.2488 56.5657 79.5264C53.4578 80.804 51.5586 82.9622 51.5586 87.0548C51.5586 91.1474 54.7606 94.4587 56.5441 96.0412C58.1628 97.4776 62.8606 100.502 65.1771 101.974C66.5583 100.993 69.8345 98.5791 71.8892 96.7775C74.4575 94.5255 74.6733 92.4393 74.4791 90.1369C74.2483 87.4013 70.8532 84.6946 67.2058 85.3442C63.5584 85.9938 63.6231 88.2675 63.6447 88.2675C66.7094 85.3658 69.7094 86.5135 71.0475 87.358C72.3856 88.2025 73.8963 91.1908 72.3856 93.6593C71.177 95.6341 67.0763 98.5387 65.1771 99.7441C63.9253 98.9645 61.0419 97.1326 59.5225 96.0412C57.6232 94.677 53.8591 91.1846 53.6521 87.6612C53.4578 84.3553 56.0909 80.5587 59.5225 80.5587Z" fill="#C9C9C9"/>
<path d="M50.5068 48.8378L76.7253 48.8378M76.7253 48.8378C76.8917 48.8378 77.0267 48.9834 77.0267 49.163L77.0267 54.53C77.0267 54.9791 76.6894 55.3432 76.2733 55.3432C75.8572 55.3432 75.5199 55.7072 75.5199 56.1563L75.5199 56.8371C75.5199 57.1964 75.7897 57.4877 76.1226 57.4877C76.4555 57.4877 76.7253 57.7789 76.7253 58.1382L76.7253 59.7083C76.7253 59.9777 76.5229 60.1962 76.2733 60.1962C76.0236 60.1962 75.8212 60.4146 75.8212 60.6841L75.8212 61.3044C75.8212 62.3331 76.226 62.77 76.7253 62.77M76.7253 48.8378C76.5589 48.8378 76.4239 48.6921 76.4239 48.5125L76.4239 24.1173C76.4239 22.6802 75.2773 21.5832 74.1069 20.898C71.6368 19.4519 70.6981 15.8311 70.6981 14.0339C70.6981 11.7571 70.0953 10.7812 69.1913 10.7812L57.7395 10.7812C56.8354 10.7812 56.2327 11.7571 56.2327 14.0339C56.2327 15.8311 55.294 19.4519 52.8239 20.898C51.6534 21.5832 50.5068 22.6802 50.5068 24.1173L50.5068 48.5125C50.5068 48.6921 50.3719 48.8378 50.2054 48.8378C50.039 48.8378 49.9041 48.9834 49.9041 49.163L49.9041 54.53C49.9041 54.9791 50.2414 55.3432 50.6575 55.3432C51.0736 55.3432 51.4109 55.7072 51.4109 56.1563L51.4109 56.8371C51.4109 57.1964 51.141 57.4877 50.8082 57.4877C50.4753 57.4877 50.2054 57.7789 50.2054 58.1382L50.2054 59.7083C50.2054 59.9777 50.4078 60.1962 50.6575 60.1962C50.9071 60.1962 51.1095 60.4146 51.1095 60.6841L51.1095 61.3044C51.1095 62.3331 50.7048 62.77 50.2054 62.77L50.0548 62.77C49.4722 62.77 49 63.2797 49 63.9084L49 112.096C49 113.056 49.2536 113.997 49.7312 114.807C50.5897 116.263 52.0779 117.144 53.6769 117.144L64.6708 117.144M50.5068 55.3432L76.7253 55.3432M50.5068 62.77L76.7253 62.77M76.7253 62.77L76.876 62.77C77.4585 62.77 77.9308 63.2797 77.9308 63.9084L77.9308 112.096C77.9308 113.056 77.6771 113.997 77.1996 114.807C76.3411 116.263 74.8529 117.144 73.2539 117.144L62.2599 117.144M50.5068 60.1962L76.7253 60.1962M50.5068 57.8129L76.7253 57.8129" stroke="#191919" stroke-width="2" stroke-linecap="round" stroke-linejoin="round"/>
<path d="M76.2715 55.3432L50.6557 55.3432C50.2397 55.3432 49.9023 54.9791 49.9023 54.53L49.9023 49.163C49.9023 48.9834 50.0373 48.8378 50.2037 48.8378C50.3701 48.8378 50.5051 48.6921 50.5051 48.5125L50.5051 24.1173C50.5051 22.6802 51.6517 21.5832 52.8221 20.898C55.2922 19.4519 56.2309 15.8311 56.2309 14.0339C56.2309 11.7571 56.8337 10.7812 57.7378 10.7812L69.1895 10.7812C70.0936 10.7812 70.6963 11.7571 70.6963 14.0339C70.6963 15.8311 71.635 19.4519 74.1052 20.898C75.2756 21.5832 76.4222 22.6802 76.4222 24.1173L76.4222 48.5125C76.4222 48.6921 76.5571 48.8378 76.7236 48.8378C76.89 48.8378 77.0249 48.9834 77.0249 49.163L77.0249 54.53C77.0249 54.9791 76.6876 55.3432 76.2715 55.3432Z" fill="#191919"/>
<path d="M50.5051 48.8378L76.7236 48.8378M76.7236 48.8378C76.89 48.8378 77.0249 48.9834 77.0249 49.163L77.0249 54.53C77.0249 54.9791 76.6876 55.3432 76.2715 55.3432L50.6557 55.3432C50.2397 55.3432 49.9023 54.9791 49.9023 54.53L49.9023 49.163C49.9023 48.9834 50.0373 48.8378 50.2037 48.8378C50.3701 48.8378 50.5051 48.6921 50.5051 48.5125L50.5051 24.1173C50.5051 22.6802 51.6517 21.5832 52.8221 20.898C55.2922 19.4519 56.2309 15.8311 56.2309 14.0339C56.2309 11.7571 56.8337 10.7812 57.7378 10.7812L69.1895 10.7812C70.0936 10.7812 70.6963 11.7571 70.6963 14.0339C70.6963 15.8311 71.635 19.4519 74.1052 20.898C75.2756 21.5832 76.4222 22.6802 76.4222 24.1173L76.4222 48.5125C76.4222 48.6921 76.5571 48.8378 76.7236 48.8378ZM50.5051 55.3432L76.7236 55.3432" stroke="#191919" stroke-width="2" stroke-linecap="round" stroke-linejoin="round"/>
<path d="M79 70H49" stroke="#191919" stroke-width="2"/>
<path d="M79 110H49" stroke="#191919" stroke-width="2"/>
<path d="M33.7574 1C32.3466 1 31.3205 1.84845 30.7667 2.9584C30.2705 3.95315 30.0952 5.22371 30.0952 6.61636C30.0952 7.34504 29.8906 8.60467 29.3749 9.84818C28.8552 11.1017 28.1265 12.085 27.2574 12.5938C25.8062 13.4434 23.6865 15.1835 23.6865 17.9021L23.6865 44.2817C23.2516 44.7272 23.0119 45.3318 23.0119 45.9345L23.0119 51.9414C23.0119 52.7825 23.3833 53.613 24.0324 54.1669C23.5932 54.6698 23.3492 55.3266 23.3492 55.9799L23.3492 57.7372C23.3492 58.3475 23.5742 58.9509 23.9788 59.416C22.7583 59.9162 22 61.1681 22 62.4382L22 116.372C22 117.792 22.3745 119.192 23.0922 120.409C24.3833 122.599 26.6734 123.998 29.2104 123.998L51.1218 123.998C53.6588 123.998 55.9489 122.599 57.24 120.409C57.9577 119.192 58.3322 117.792 58.3322 116.372L58.3322 62.4382C58.3322 61.2404 57.6578 60.0588 56.5573 59.5086C56.8239 59.1718 56.983 58.7461 56.983 58.2832C56.983 58.1964 56.9774 58.1105 56.9663 58.026C56.9773 57.9307 56.983 57.8343 56.983 57.7372L56.983 55.9799C56.983 55.9142 56.9806 55.8489 56.9759 55.784C56.9806 55.7284 56.983 55.6723 56.983 55.6158C56.983 55.077 56.7671 54.5893 56.4189 54.2337C56.6217 54.0264 56.7793 53.7747 56.8757 53.4945C57.1608 53.0356 57.3203 52.4964 57.3203 51.9414L57.3203 45.9345C57.3203 45.3318 57.0807 44.7272 56.6457 44.2817L56.6457 17.9021C56.6457 15.1835 54.526 13.4434 53.0748 12.5938C52.2057 12.085 51.4771 11.1017 50.9573 9.84818C50.4417 8.60467 50.2371 7.34504 50.2371 6.61636C50.2371 5.22371 50.0617 3.95315 49.5655 2.9584C49.0117 1.84845 47.9856 1 46.5748 1L33.7574 1Z" fill="#F5F5F5" stroke="#F5F5F5" stroke-width="2" stroke-linecap="round" stroke-linejoin="round"/>
<ellipse cx="40" cy="123.5" rx="18" ry="1.5" fill="#C9C9C9"/>
<path d="M35.7534 79.7445C38.826 79.7445 40.5282 81.538 40.9952 82.4347C40.9952 81.7319 40.8261 80.3262 40.0773 79.5022C39.3285 78.6781 35.9225 77.1593 32.444 78.5892C28.9656 80.0191 26.8398 82.4347 26.8398 87.0154C26.8398 91.596 30.4237 95.3021 32.4199 97.0733C34.2316 98.6809 39.4895 102.066 42.0823 103.714C43.6282 102.615 47.2951 99.9138 49.5948 97.8974C52.4693 95.3768 52.7109 93.0419 52.4935 90.4649C52.2352 87.4031 48.4353 84.3736 44.3529 85.1007C40.2706 85.8278 40.343 88.3726 40.3672 88.3726C43.7973 85.1249 47.155 86.4094 48.6527 87.3547C50.1503 88.2999 51.8413 91.6444 50.1503 94.4074C48.7976 96.6177 44.208 99.8686 42.0823 101.218C40.6812 100.345 37.454 98.2948 35.7534 97.0733C33.6277 95.5465 29.4147 91.6376 29.183 87.694C28.9656 83.9938 31.9126 79.7445 35.7534 79.7445Z" fill="#C9C9C9"/>
<path d="M25.6631 45.5712L55.008 45.5712M55.008 45.5712C55.1943 45.5712 55.3453 45.7342 55.3453 45.9352L55.3453 51.9422C55.3453 52.4448 54.9678 52.8523 54.5021 52.8523C54.0363 52.8523 53.6588 53.2598 53.6588 53.7624L53.6588 54.5244C53.6588 54.9265 53.9608 55.2525 54.3334 55.2525C54.706 55.2525 55.008 55.5785 55.008 55.9806L55.008 57.7379C55.008 58.0395 54.7815 58.284 54.5021 58.284C54.2226 58.284 53.9961 58.5285 53.9961 58.8301L53.9961 59.5244C53.9961 60.6758 54.4492 61.1648 55.008 61.1648M55.008 45.5712C54.8217 45.5712 54.6707 45.4082 54.6707 45.2071L54.6707 17.9029C54.6707 16.2944 53.3874 15.0666 52.0774 14.2997C49.3127 12.6811 48.262 8.62854 48.262 6.61713C48.262 4.06873 47.5874 2.97656 46.5755 2.97656L33.7582 2.97656C32.7463 2.97656 32.0717 4.06873 32.0717 6.61713C32.0717 8.62854 31.0211 12.6811 28.2564 14.2997C26.9464 15.0666 25.6631 16.2944 25.6631 17.9029L25.6631 45.2071C25.6631 45.4082 25.512 45.5712 25.3258 45.5712C25.1395 45.5712 24.9885 45.7342 24.9885 45.9352L24.9885 51.9422C24.9885 52.4448 25.366 52.8523 25.8317 52.8523C26.2974 52.8523 26.6749 53.2598 26.6749 53.7624L26.6749 54.5244C26.6749 54.9265 26.3729 55.2525 26.0004 55.2525C25.6278 55.2525 25.3258 55.5785 25.3258 55.9806L25.3258 57.7379C25.3258 58.0395 25.5523 58.284 25.8317 58.284C26.1111 58.284 26.3377 58.5285 26.3377 58.8301L26.3377 59.5244C26.3377 60.6758 25.8846 61.1648 25.3258 61.1648L25.1571 61.1648C24.5051 61.1648 23.9766 61.7352 23.9766 62.439L23.9766 116.373C23.9766 117.448 24.2605 118.5 24.7949 119.406C25.7558 121.036 27.4215 122.023 29.2112 122.023L41.5161 122.023M25.6631 52.8523L55.008 52.8523M25.6631 61.1648L55.008 61.1648M55.008 61.1648L55.1767 61.1648C55.8287 61.1648 56.3572 61.7352 56.3572 62.439L56.3572 116.373C56.3572 117.448 56.0733 118.5 55.5388 119.406C54.578 121.036 52.9123 122.023 51.1226 122.023L38.8177 122.023M25.6631 58.284L55.008 58.284M25.6631 55.6166L55.008 55.6166" stroke="#191919" stroke-width="2" stroke-linecap="round" stroke-linejoin="round"/>
<path d="M54.498 52.8523L25.8276 52.8523C25.3619 52.8523 24.9844 52.4448 24.9844 51.9422L24.9844 45.9352C24.9844 45.7342 25.1354 45.5712 25.3217 45.5712C25.508 45.5712 25.659 45.4082 25.659 45.2071L25.659 17.9029C25.659 16.2944 26.9423 15.0666 28.2523 14.2997C31.017 12.6811 32.0676 8.62854 32.0676 6.61713C32.0676 4.06873 32.7422 2.97656 33.7541 2.97656L46.5715 2.97656C47.5834 2.97656 48.258 4.06873 48.258 6.61713C48.258 8.62854 49.3086 12.6811 52.0733 14.2997C53.3833 15.0666 54.6666 16.2944 54.6666 17.9029L54.6666 45.2071C54.6666 45.4082 54.8176 45.5712 55.0039 45.5712C55.1902 45.5712 55.3412 45.7342 55.3412 45.9352L55.3412 51.9422C55.3412 52.4448 54.9637 52.8523 54.498 52.8523Z" fill="#191919"/>
<path d="M25.659 45.5712L55.0039 45.5712M55.0039 45.5712C55.1902 45.5712 55.3412 45.7342 55.3412 45.9352L55.3412 51.9422C55.3412 52.4448 54.9637 52.8523 54.498 52.8523L25.8276 52.8523C25.3619 52.8523 24.9844 52.4448 24.9844 51.9422L24.9844 45.9352C24.9844 45.7342 25.1354 45.5712 25.3217 45.5712C25.508 45.5712 25.659 45.4082 25.659 45.2071L25.659 17.9029C25.659 16.2944 26.9423 15.0666 28.2523 14.2997C31.017 12.6811 32.0676 8.62854 32.0676 6.61713C32.0676 4.06873 32.7422 2.97656 33.7541 2.97656L46.5715 2.97656C47.5834 2.97656 48.258 4.06873 48.258 6.61713C48.258 8.62854 49.3086 12.6811 52.0733 14.2997C53.3833 15.0666 54.6666 16.2944 54.6666 17.9029L54.6666 45.2071C54.6666 45.4082 54.8176 45.5712 55.0039 45.5712ZM25.659 52.8523L55.0039 52.8523" stroke="#191919" stroke-width="2" stroke-linecap="round" stroke-linejoin="round"/>
<path d="M56.5547 68.5H24.0547" stroke="#191919" stroke-width="2"/>
<path d="M56.5547 112H24.0547" stroke="#191919" stroke-width="2"/>
</svg>
