<svg width="129" height="121" viewBox="0 0 129 121" fill="none" xmlns="http://www.w3.org/2000/svg">
<ellipse cx="64.7969" cy="119.5" rx="18" ry="1.5" fill="#C9C9C9"/>
<path d="M25.7969 50L4.29688 39L63.7969 10L125.297 39L103.297 50L102.797 46.5L98.2969 45C89.1302 43.5 68.4969 40.4 59.2969 40C50.0969 39.6 33.7969 43.8333 26.7969 46L25.7969 50Z" fill="#191919"/>
<path d="M109.297 82.5C108.897 82.5 111.131 69.1667 112.297 62.5H112.797L117.297 82.5H109.297Z" fill="#191919"/>
<path fill-rule="evenodd" clip-rule="evenodd" d="M128.41 32.5055C128.41 32.1266 128.196 31.7803 127.857 31.611L65.0516 0.223985C64.7695 0.0830143 64.4375 0.083358 64.1557 0.224913L1.34799 31.7759C1.01012 31.9457 0.796875 32.2914 0.796875 32.6695V39.0615C0.796875 39.0638 0.798724 39.0656 0.801004 39.0656C0.801652 39.0656 0.802291 39.0658 0.802869 39.0661L27.4414 52.5509V48.8696C27.4414 47.9214 28.1084 47.1075 29.0265 46.8706C30.0801 46.5987 31.1381 46.2816 32.2731 45.9415L32.2758 45.9407C37.9959 44.2263 45.672 41.9258 64.5843 41.8688C82.5583 41.9261 90.7195 44.2405 96.7678 45.9557C97.9655 46.2953 99.0804 46.6114 100.172 46.8819C101.095 47.1105 101.765 47.9267 101.765 48.8775V52.5509L111.582 47.5817V56.5822L107.621 82.3246C107.491 83.174 108.148 83.9401 109.008 83.9401H116.957C117.817 83.9401 118.474 83.174 118.343 82.3246L114.387 56.6061V46.1619L128.404 39.0661C128.405 39.0658 128.405 39.0656 128.406 39.0656C128.408 39.0656 128.41 39.0638 128.41 39.0615V32.5055ZM125.605 33.6212L66.0058 3.83624V9.06816L125.605 37.7149V33.6212ZM63.2011 3.83624L3.60156 33.6212V37.715L63.2011 9.06823V3.83624ZM115.323 81.1354L112.982 65.9242L110.642 81.1354H115.323ZM64.6034 11.5024L6.79594 39.0923L24.6367 48.0128V44.8805L25.8158 44.6904C27.5608 44.4089 29.2462 43.9036 31.235 43.3074C36.8888 41.6123 44.9956 39.1821 63.9022 39.0672V39.063L64.17 39.0632L64.585 39.0642C64.8233 39.0635 65.0631 39.063 65.3046 39.063V39.0678C83.2438 39.1885 91.808 41.6181 97.7783 43.3118C99.8706 43.9055 101.644 44.4086 103.391 44.6904L104.57 44.8805V48.0128L122.411 39.0923L64.6034 11.5024Z" fill="#191919"/>
<path d="M94.7538 86.041C94.7538 102.693 81.255 116.191 64.6035 116.191C47.9519 116.191 34.4531 102.693 34.4531 86.041C34.4531 69.3894 47.9519 55.8906 64.6035 55.8906C81.255 55.8906 94.7538 69.3894 94.7538 86.041Z" fill="#F5F5F5"/>
<path fill-rule="evenodd" clip-rule="evenodd" d="M97.5624 86.746C97.5624 104.559 83.1219 119 65.3085 119C47.4952 119 33.0547 104.559 33.0547 86.746C33.0547 68.9327 47.4952 54.4922 65.3085 54.4922C83.1219 54.4922 97.5624 68.9327 97.5624 86.746ZM65.3085 116.255C81.6058 116.255 94.8174 103.043 94.8174 86.746C94.8174 70.4488 81.6058 57.2372 65.3085 57.2372C49.0113 57.2372 35.7997 70.4488 35.7997 86.746C35.7997 103.043 49.0113 116.255 65.3085 116.255Z" fill="#191919"/>
<path fill-rule="evenodd" clip-rule="evenodd" d="M65.3086 44.6894C69.4941 44.6128 75.8322 44.8554 82.0217 45.527C88.1705 46.1942 94.3791 47.3045 98.1501 49.0449L98.9648 49.4209V72.6529L97.0832 71.9687C95.9795 71.5674 92.989 70.8904 87.7277 70.3123C82.5063 69.7386 75.13 69.2705 65.3085 69.2492C55.4871 69.2705 48.1108 69.7386 42.8894 70.3123C37.6281 70.8904 34.6376 71.5674 33.5339 71.9687L31.6523 72.6529V49.4209L32.467 49.0449C36.238 47.3045 42.4466 46.1942 48.5954 45.527C54.7849 44.8554 61.123 44.6128 65.3086 44.6894Z" fill="#F5F5F5"/>
<path fill-rule="evenodd" clip-rule="evenodd" d="M65.3046 47.4946C65.532 47.4989 65.7521 47.5042 65.9646 47.5104L65.9653 47.485C70.0224 47.4434 75.9322 47.6878 81.7152 48.3153C87.3844 48.9305 92.756 49.897 96.1562 51.2438V68.8013C94.3668 68.3839 91.679 67.9253 88.0302 67.5244C82.8187 66.9517 75.5658 66.4883 66.0058 66.4468V66.4438C65.7708 66.4438 65.537 66.444 65.3046 66.4445C65.0723 66.444 64.8385 66.4438 64.6035 66.4438V66.4468C55.0435 66.4883 47.7906 66.9517 42.5791 67.5244C38.9303 67.9253 36.2425 68.3839 34.4531 68.8013V51.2438C37.8533 49.897 43.2249 48.9305 48.8941 48.3153C54.677 47.6878 60.5868 47.4434 64.6439 47.485L64.6447 47.5104C64.8572 47.5042 65.0773 47.4989 65.3046 47.4946ZM65.3046 44.6894C69.4902 44.6128 75.8282 44.8554 82.0178 45.527C88.1666 46.1942 94.3752 47.3045 98.1462 49.0449L98.3799 49.1528C98.7341 49.3163 98.9608 49.6707 98.9608 50.0608V71.2252C98.9608 71.9192 98.2713 72.4022 97.6191 72.165L97.0793 71.9687C95.9756 71.5674 92.9851 70.8904 87.7238 70.3123C82.5024 69.7386 75.1261 69.2706 65.3046 69.2492C55.4832 69.2706 48.1068 69.7386 42.8855 70.3123C37.6242 70.8904 34.6337 71.5674 33.53 71.9687L32.9902 72.165C32.338 72.4022 31.6484 71.9192 31.6484 71.2252V50.0608C31.6484 49.6707 31.8752 49.3163 32.2294 49.1528L32.4631 49.0449C36.2341 47.3045 42.4427 46.1942 48.5915 45.527C54.781 44.8554 61.1191 44.6128 65.3046 44.6894Z" fill="#191919"/>
<path fill-rule="evenodd" clip-rule="evenodd" d="M58.2881 77.8759V95.6163L73.7648 86.7461L58.2881 77.8759ZM57.598 74.3154C56.6648 73.7805 55.4883 74.4361 55.4883 75.4911V98.0011C55.4883 99.056 56.6648 99.7116 57.598 99.1768L77.2356 87.9217C78.1558 87.3944 78.1558 86.0978 77.2356 85.5704L57.598 74.3154Z" fill="#191919"/>
<path d="M75.2969 86.5L57.2969 76V98L75.2969 86.5Z" fill="#191919"/>
<path d="M97.2969 70L98.2969 50.5C90.4635 49 72.5969 46 63.7969 46C54.9969 46 40.4635 48.3333 34.2969 49.5L32.2969 53L34.2969 70C40.9635 69.5 56.0969 68.4 63.2969 68C70.4969 67.6 88.9635 69.1667 97.2969 70Z" fill="#191919"/>
</svg>
