<svg width="107" height="107" viewBox="0 0 107 107" fill="none" xmlns="http://www.w3.org/2000/svg">
<ellipse cx="64.4102" cy="105.5" rx="14" ry="1.5" fill="#C9C9C9"/>
<path d="M37.6541 7.05567C50.3204 7.05567 57.3372 14.3093 59.2624 17.9362C59.2624 15.0935 58.5654 9.40821 55.4785 6.07545C52.3916 2.74268 38.3512 -3.40035 24.0121 2.38298C9.67295 8.16632 0.410156 19.5 0.410156 36.5C0.410156 55.0263 15.6838 69.9779 23.9125 77.1418C31.3808 83.6437 53.0554 97.3345 63.7434 104C70.1163 99.5563 85.2321 88.6301 94.7119 80.4746C106.562 70.2802 107.557 60.8368 106.661 50.414C105.596 38.0308 89.9322 25.778 73.1036 28.7187C56.2751 31.6593 56.5738 41.9517 56.6734 41.9517C70.8134 28.8167 84.6546 34.0119 90.8284 37.8348C97.0022 41.6576 103.973 55.1848 97.0022 66.3593C91.4258 75.299 72.5062 88.4471 63.7434 93.9037C57.9679 90.3749 44.6644 82.0821 37.6541 77.1418C28.8914 70.9664 10.5691 54.1856 10.5691 38.2071C10.5691 23.5 21.8214 7.05567 37.6541 7.05567Z" fill="#191919"/>
</svg>
