<svg width="26" height="25" viewBox="0 0 26 25" fill="none" xmlns="http://www.w3.org/2000/svg">
<path fill-rule="evenodd" clip-rule="evenodd" d="M13.5313 6.10889C10.128 6.10889 7.36914 8.86775 7.36914 12.271C7.36914 15.6743 10.128 18.4332 13.5313 18.4332C16.9346 18.4332 19.6935 15.6743 19.6935 12.271C19.6935 8.86775 16.9346 6.10889 13.5313 6.10889ZM13.5313 16.271C11.3222 16.271 9.5313 14.4802 9.5313 12.271C9.5313 10.0619 11.3222 8.27104 13.5313 8.27104C15.7404 8.27104 17.5313 10.0619 17.5313 12.271C17.5313 14.4802 15.7404 16.271 13.5313 16.271Z" fill="black"/>
<path d="M19.9367 7.30139C20.732 7.30139 21.3768 6.65666 21.3768 5.86141C21.3768 5.06611 20.732 4.42139 19.9367 4.42139C19.1415 4.42139 18.4967 5.06611 18.4967 5.86141C18.4967 6.65666 19.1415 7.30139 19.9367 7.30139Z" fill="black"/>
<path fill-rule="evenodd" clip-rule="evenodd" d="M13.3327 0.265137C9.89262 0.265137 9.46127 0.278951 8.11023 0.33735C6.76201 0.395606 5.84123 0.59848 5.03553 0.895097C4.20259 1.20177 3.4962 1.61209 2.79197 2.2792C2.0878 2.94636 1.65468 3.61557 1.33102 4.40468C1.01788 5.16797 0.803734 6.04029 0.742241 7.31755C0.680597 8.59748 0.666016 9.00613 0.666016 12.2651C0.666016 15.5241 0.680597 15.9328 0.742241 17.2127C0.803734 18.49 1.01788 19.3623 1.33102 20.1256C1.65468 20.9147 2.0878 21.5839 2.79197 22.2511C3.4962 22.9182 4.20259 23.3285 5.03553 23.6351C5.84123 23.9318 6.76201 24.1347 8.11023 24.1929C9.46127 24.2513 9.89262 24.2651 13.3327 24.2651C16.7727 24.2651 17.2041 24.2513 18.5551 24.1929C19.9034 24.1347 20.8241 23.9318 21.6298 23.6351C22.4628 23.3285 23.1692 22.9182 23.8734 22.2511C24.5776 21.5839 25.0107 20.9147 25.3344 20.1256C25.6475 19.3623 25.8616 18.49 25.9231 17.2127C25.9848 15.9328 25.9993 15.5241 25.9993 12.2651C25.9993 9.00613 25.9848 8.59748 25.9231 7.31755C25.8616 6.04029 25.6475 5.16797 25.3344 4.40468C25.0107 3.61557 24.5776 2.94636 23.8734 2.2792C23.1692 1.61209 22.4628 1.20177 21.6298 0.895097C20.8241 0.59848 19.9034 0.395606 18.5551 0.33735C17.2041 0.278951 16.7727 0.265137 13.3327 0.265137ZM13.3327 2.42729C16.7148 2.42729 17.1155 2.43954 18.4511 2.49727C19.6861 2.55062 20.3568 2.74611 20.8031 2.91045C21.3944 3.12814 21.8163 3.38817 22.2595 3.80806C22.7028 4.22801 22.9773 4.62775 23.2071 5.18788C23.3805 5.61073 23.5869 6.24612 23.6432 7.41611C23.7041 8.68146 23.7171 9.06101 23.7171 12.2651C23.7171 15.4693 23.7041 15.8488 23.6432 17.1142C23.5869 18.2842 23.3805 18.9195 23.2071 19.3424C22.9773 19.9025 22.7028 20.3023 22.2596 20.7222C21.8163 21.1421 21.3944 21.4021 20.8031 21.6198C20.3568 21.7842 19.6861 21.9797 18.4511 22.033C17.1157 22.0907 16.7151 22.103 13.3327 22.103C9.95029 22.103 9.54976 22.0907 8.21426 22.033C6.97927 21.9797 6.30858 21.7842 5.86225 21.6198C5.271 21.4021 4.84904 21.1421 4.40582 20.7222C3.9626 20.3023 3.68807 19.9025 3.45829 19.3424C3.28482 18.9195 3.07847 18.2842 3.02216 17.1142C2.96122 15.8488 2.94829 15.4693 2.94829 12.2651C2.94829 9.06101 2.96122 8.68146 3.02216 7.41611C3.07847 6.24612 3.28482 5.61073 3.45829 5.18788C3.68807 4.62775 3.96255 4.22801 4.40582 3.80811C4.84904 3.38817 5.271 3.12814 5.86225 2.91045C6.30858 2.74611 6.97927 2.55062 8.21426 2.49727C9.54991 2.43954 9.95055 2.42729 13.3327 2.42729Z" fill="black"/>
</svg>
