<svg width="22" height="17" viewBox="0 0 22 17" fill="none" xmlns="http://www.w3.org/2000/svg">
<path d="M19.534 16.2651H2.46732C1.90152 16.2651 1.3589 16.0544 0.958823 15.6794C0.558746 15.3043 0.333984 14.7956 0.333984 14.2651V2.17814C0.357913 1.66293 0.593194 1.1763 0.990708 0.819838C1.38822 0.46338 1.91724 0.264649 2.46732 0.265138H19.534C20.0998 0.265138 20.6424 0.475851 21.0425 0.850924C21.4426 1.226 21.6673 1.7347 21.6673 2.26514V14.2651C21.6673 14.7956 21.4426 15.3043 21.0425 15.6794C20.6424 16.0544 20.0998 16.2651 19.534 16.2651ZM2.46732 4.13314V14.2651H19.534V4.13314L11.0007 9.46514L2.46732 4.13314ZM3.32065 2.26514L11.0007 7.06514L18.6807 2.26514H3.32065Z" fill="black"/>
</svg>
