<svg width="22" height="22" viewBox="0 0 22 22" fill="none" xmlns="http://www.w3.org/2000/svg">
<path fill-rule="evenodd" clip-rule="evenodd" d="M15.8885 13.3831C15.6223 13.2507 14.3174 12.6125 14.0745 12.5236C13.8315 12.4356 13.6547 12.392 13.4769 12.6569C13.3001 12.92 12.7919 13.5156 12.6374 13.6916C12.4819 13.8685 12.3274 13.8898 12.0622 13.7582C11.7969 13.6249 10.9412 13.3467 9.92749 12.4471C9.13882 11.7467 8.6056 10.8818 8.45108 10.6169C8.29656 10.3529 8.43411 10.2098 8.56719 10.0783C8.68688 9.96003 8.83246 9.76981 8.96555 9.61603C9.09863 9.46136 9.14239 9.35114 9.23082 9.17425C9.32013 8.99825 9.27547 8.84448 9.20849 8.71203C9.14239 8.57959 8.61185 7.27915 8.39035 6.75026C8.17509 6.23559 7.95627 6.30581 7.79371 6.29693C7.6383 6.28981 7.46145 6.28804 7.28461 6.28804C7.10776 6.28804 6.82016 6.35381 6.57722 6.6187C6.33338 6.8827 5.64832 7.52181 5.64832 8.82226C5.64832 10.1218 6.59865 11.3778 6.73174 11.5547C6.86482 11.7307 8.60292 14.3991 11.2654 15.5431C11.8996 15.8151 12.3935 15.9778 12.7785 16.0987C13.4144 16.3005 13.9932 16.272 14.4505 16.2036C14.9596 16.128 16.0207 15.5645 16.2422 14.9476C16.4628 14.3307 16.4628 13.8018 16.3967 13.6916C16.3306 13.5814 16.1537 13.5156 15.8876 13.3831H15.8885ZM11.0457 19.9636H11.0422C9.46074 19.9639 7.90837 19.5408 6.54774 18.7387L6.2262 18.5485L2.88397 19.4213L3.77625 16.1787L3.56635 15.8462C2.68224 14.4457 2.21436 12.8247 2.21678 11.1707C2.21857 6.32626 6.17887 2.38493 11.0493 2.38493C13.4073 2.38493 15.6241 3.30049 17.2908 4.96093C18.1128 5.77566 18.7644 6.74454 19.2077 7.8115C19.6511 8.87846 19.8775 10.0223 19.8738 11.1769C19.872 16.0214 15.9117 19.9636 11.0457 19.9636ZM18.559 3.6996C17.5749 2.71375 16.404 1.93208 15.1142 1.39987C13.8243 0.867658 12.4412 0.595498 11.0448 0.599158C5.19102 0.599158 0.425087 5.34137 0.423301 11.1698C0.420589 13.0247 0.909518 14.8475 1.84076 16.4542L0.333984 21.9325L5.96451 20.4622C7.52208 21.3068 9.26752 21.7493 11.0413 21.7493H11.0457C16.8995 21.7493 21.6655 17.0071 21.6673 11.1778C21.6716 9.78872 21.3991 8.41257 20.8656 7.12895C20.3321 5.84534 19.5481 4.67975 18.559 3.6996Z" fill="black"/>
</svg>
