<svg width="24" height="17" viewBox="0 0 24 17" fill="none" xmlns="http://www.w3.org/2000/svg">
<path d="M24 8.19619C24 8.14202 24 8.08046 23.9973 8.00906C23.9946 7.80961 23.9893 7.58554 23.9839 7.3467C23.9625 6.65972 23.925 5.9752 23.8661 5.33008C23.7857 4.44119 23.6679 3.70004 23.5071 3.14356C23.3375 2.56283 23.0051 2.03318 22.543 1.60757C22.081 1.18196 21.5055 0.875284 20.8741 0.718199C20.1161 0.531065 18.6321 0.415337 16.5429 0.34393C15.5491 0.309458 14.4857 0.287297 13.4223 0.274986C13.05 0.270061 12.7045 0.267599 12.3937 0.265137H11.6062C11.2955 0.267599 10.95 0.270061 10.5777 0.274986C9.51429 0.287297 8.45089 0.309458 7.45714 0.34393C5.36786 0.417799 3.88125 0.533527 3.12589 0.718199C2.49429 0.874898 1.91858 1.18144 1.45646 1.60712C0.994336 2.03279 0.662036 2.56264 0.492857 3.14356C0.329464 3.70004 0.214286 4.44119 0.133929 5.33008C0.075 5.9752 0.0375 6.65972 0.0160714 7.3467C0.00803567 7.58554 0.0053571 7.80961 0.00267853 8.00906C0.00267853 8.08046 0 8.14202 0 8.19619V8.33408C0 8.38825 -4.10498e-08 8.44981 0.00267853 8.52122C0.0053571 8.72066 0.0107142 8.94473 0.0160714 9.18357C0.0375 9.87055 0.075 10.5551 0.133929 11.2002C0.214286 12.0891 0.332143 12.8302 0.492857 13.3867C0.835714 14.5662 1.84286 15.4969 3.12589 15.8121C3.88125 15.9992 5.36786 16.1149 7.45714 16.1863C8.45089 16.2208 9.51429 16.243 10.5777 16.2553C10.95 16.2602 11.2955 16.2627 11.6062 16.2651H12.3937C12.7045 16.2627 13.05 16.2602 13.4223 16.2553C14.4857 16.243 15.5491 16.2208 16.5429 16.1863C18.6321 16.1125 20.1187 15.9967 20.8741 15.8121C22.1571 15.4969 23.1643 14.5686 23.5071 13.3867C23.6705 12.8302 23.7857 12.0891 23.8661 11.2002C23.925 10.5551 23.9625 9.87055 23.9839 9.18357C23.992 8.94473 23.9946 8.72066 23.9973 8.52122C23.9973 8.44981 24 8.38825 24 8.33408V8.19619ZM22.0714 8.32423C22.0714 8.37594 22.0714 8.43257 22.0687 8.49905C22.0661 8.69111 22.0607 8.90287 22.0554 9.13186C22.0366 9.78684 21.9991 10.4418 21.9429 11.05C21.8705 11.8429 21.7687 12.4929 21.6429 12.9287C21.4768 13.4975 20.9893 13.9481 20.3732 14.0983C19.8107 14.2362 18.3937 14.347 16.4679 14.4135C15.4929 14.448 14.4429 14.4701 13.3955 14.4824C13.0286 14.4874 12.6884 14.4898 12.383 14.4898H11.617L10.6045 14.4824C9.55714 14.4701 8.50982 14.448 7.53214 14.4135C5.60625 14.3445 4.18661 14.2362 3.62679 14.0983C3.01071 13.9457 2.52321 13.4975 2.35714 12.9287C2.23125 12.4929 2.12946 11.8429 2.05714 11.05C2.00089 10.4418 1.96607 9.78684 1.94464 9.13186C1.93661 8.90287 1.93393 8.68865 1.93125 8.49905C1.93125 8.43257 1.92857 8.37348 1.92857 8.32423V8.20604C1.92857 8.15433 1.92857 8.0977 1.93125 8.03122C1.93393 7.83916 1.93929 7.6274 1.94464 7.39841C1.96339 6.74344 2.00089 6.08847 2.05714 5.48028C2.12946 4.68742 2.23125 4.03737 2.35714 3.60155C2.52321 3.03276 3.01071 2.58216 3.62679 2.43196C4.18929 2.29407 5.60625 2.18326 7.53214 2.11678C8.50714 2.08231 9.55714 2.06015 10.6045 2.04784C10.9714 2.04291 11.3116 2.04045 11.617 2.04045H12.383L13.3955 2.04784C14.4429 2.06015 15.4902 2.08231 16.4679 2.11678C18.3937 2.18573 19.8134 2.29407 20.3732 2.43196C20.9893 2.58462 21.4768 3.03276 21.6429 3.60155C21.7687 4.03737 21.8705 4.68742 21.9429 5.48028C21.9991 6.08847 22.0339 6.74344 22.0554 7.39841C22.0634 7.6274 22.0661 7.84162 22.0687 8.03122C22.0687 8.0977 22.0714 8.1568 22.0714 8.20604V8.32423ZM9.61607 11.3977C9.61607 11.4733 9.69662 11.5215 9.76324 11.4859L15.6643 8.32935C15.735 8.29154 15.7347 8.19008 15.6637 8.1527L9.76269 5.04293C9.6961 5.00783 9.61607 5.05612 9.61607 5.13139V11.3977Z" fill="black"/>
</svg>
