<svg width="42" height="42" viewBox="0 0 42 42" fill="none" xmlns="http://www.w3.org/2000/svg">
<path d="M14.5589 2.84941C19.5776 2.84941 22.3579 5.77877 23.1207 7.24346C23.1207 6.09547 22.8445 3.79947 21.6214 2.45355C20.3983 1.10762 14.8351 -1.37322 9.15359 0.962358C3.47205 3.29793 0 7.24346 0 14.7252C0 22.207 5.85371 28.2603 9.11413 31.1534C12.0733 33.7792 20.6613 39.3082 24.8962 42C27.4213 40.2054 33.4106 35.7929 37.1667 32.4994C41.8619 28.3824 42.2564 24.5687 41.9013 20.3595C41.4795 15.3586 35.2729 10.4103 28.605 11.5979C21.937 12.7855 22.0554 16.942 22.0949 16.942C27.6975 11.6375 33.1818 13.7356 35.628 15.2794C38.0742 16.8233 40.836 22.2862 38.0742 26.799C35.8647 30.4092 28.3682 35.719 24.8962 37.9226C22.6078 36.4975 17.3366 33.1486 14.5589 31.1534C11.0869 28.6595 4.20561 22.275 3.82715 15.8336C3.47205 9.79005 8.28557 2.84941 14.5589 2.84941Z" fill="#191919"/>
</svg>
