<svg width="81" height="73" viewBox="0 0 81 73" fill="none" xmlns="http://www.w3.org/2000/svg">
<path d="M41.5032 0C41.5032 0 27.8047 14.5424 27.8047 27.7771C27.8047 35.4356 33.9378 41.6436 41.5032 41.6436C49.0686 41.6436 55.2018 35.4353 55.2018 27.7771C55.2018 14.6108 41.5032 0 41.5032 0Z" fill="#191919"/>
<path d="M14.1087 31.2051C14.1087 31.2051 0.410156 45.7475 0.410156 58.9822C0.410156 66.6407 6.5433 72.8486 14.1087 72.8486C21.6741 72.8486 27.8072 66.6403 27.8072 58.9822C27.8072 45.8159 14.1087 31.2051 14.1087 31.2051Z" fill="#191919"/>
<path d="M66.7103 31.2051C66.7103 31.2051 53.0117 45.7475 53.0117 58.9822C53.0117 66.6407 59.1449 72.8486 66.7103 72.8486C74.2757 72.8486 80.4088 66.6403 80.4088 58.9822C80.4088 45.8159 66.7103 31.2051 66.7103 31.2051Z" fill="#191919"/>
</svg>
