<svg width="82" height="76" viewBox="0 0 82 76" fill="none" xmlns="http://www.w3.org/2000/svg">
<path fill-rule="evenodd" clip-rule="evenodd" d="M37.3184 24.7197C32.0904 26.3564 27.4224 29.3719 23.5535 33.22C21.9564 34.8085 20.4955 36.539 19.1875 38.3728C18.6278 39.0342 18.6278 39.9143 18.9635 40.6854C19.604 40.3888 20.246 40.0936 20.8898 39.8016C20.9544 39.7723 21.019 39.743 21.0836 39.7138C22.8378 38.9202 24.6063 38.1509 26.3987 37.4404C29.7478 36.1129 33.1802 34.9905 36.7585 34.2986C39.3325 33.7479 42.0188 33.4176 44.5927 33.4176C48.3978 33.4176 52.0912 34.0782 55.449 35.5098C56.4681 35.9199 57.4488 36.4243 58.4308 36.9294C59.8215 37.6446 61.2147 38.3612 62.7234 38.8131C64.1785 39.3638 65.7454 39.5842 67.3123 39.5842C69.887 39.5842 72.461 38.9238 74.6992 37.7126C75.2645 37.3999 75.796 37.069 76.2948 36.718C78.9567 34.8444 80.686 32.3953 81.6289 29.0577C79.5418 31.0219 77.0931 31.7272 74.3319 31.9237C73.6879 31.9696 73.0268 31.9877 72.3493 31.9877C70.1111 31.9877 67.9845 31.5469 66.082 30.5561C64.8236 29.9371 63.6203 29.1009 62.4337 28.2762C61.9315 27.9272 61.4324 27.5803 60.9332 27.2528C56.6809 24.6101 51.5322 23.2891 46.496 23.2891C43.3614 23.2891 40.2281 23.7289 37.3184 24.7197Z" fill="#231F20"/>
<path d="M67.8248 63.4403L63.0391 58.5956C65.7076 55.762 67.9167 52.4711 69.3893 48.9062L75.8313 51.2828C73.9908 55.762 71.2298 59.8755 67.8248 63.4403Z" fill="#A5A19E"/>
<path d="M48.0319 74.4965L46.8359 67.823C50.7012 67.0005 54.2902 65.4465 57.6035 63.3438L61.5605 68.8287C57.4193 71.5712 52.8176 73.4908 48.0319 74.4965Z" fill="#8F8B89"/>
<path d="M24.0859 72.5749L26.847 66.3594C30.5279 67.8221 34.3013 68.5534 38.2589 68.5534L38.4432 75.3179C33.4732 75.3173 28.6875 74.4031 24.0859 72.5749Z" fill="#797673"/>
<path d="M17.0864 68.5579C13.0369 65.8155 9.44792 62.3424 6.6875 58.3201L12.4856 54.6641C14.6945 57.8637 17.5474 60.6054 20.768 62.7996L17.0864 68.5579Z" fill="#64615F"/>
<path d="M2.85278 50.8223C1.01233 46.2518 0.0917017 41.4983 0 36.5625L6.90228 36.7455C6.99408 40.6758 7.73041 44.5157 9.11117 48.0805L2.85278 50.8223Z" fill="#4E4B4A"/>
<path d="M1.33594 28.0623C2.3483 23.2176 4.28124 18.7383 7.04166 14.625L12.5638 18.5553C10.4473 21.8461 8.88292 25.4111 8.05416 29.2503L1.33594 28.0623Z" fill="#393536"/>
<path d="M12.043 8.04427C15.5403 4.66225 19.7734 1.91978 24.283 0L26.6756 6.39856C23.0865 7.95245 19.7734 10.0546 16.9206 12.7971L12.043 8.04427Z" fill="#231F20"/>
</svg>
