<svg width="68" height="74" viewBox="0 0 68 74" fill="none" xmlns="http://www.w3.org/2000/svg">
<path fill-rule="evenodd" clip-rule="evenodd" d="M33.2386 11.1678C38.1073 8.74415 42.4634 6.57567 46.054 2.19064C42.9594 0.914397 38.4969 -0.199183 34.556 0.0301531C27.7482 0.618912 20.0294 5.98585 14.6876 12.2031C9.67137 13.2505 3.33396 14.854 0.467776 21.4971C-0.900561 26.504 4.55784 32.2633 9.41103 35.4702C8.56401 37.8918 8.17287 41.5238 9.5085 44.6657C6.64231 45.7782 5.17659 46.4656 3.58063 49.574C3.05934 51.3409 3.28755 53.4031 4.06923 55.0066C4.8509 56.61 6.12108 57.6569 7.35924 57.8856C9.76943 58.2129 12.0169 55.562 13.5475 53.6969C16.6418 56.773 19.508 59.6198 23.3187 62.2379C25.6964 60.7652 28.3022 60.831 30.5169 60.9617C28.7254 56.1842 28.5952 51.8318 30.5496 48.625C31.7224 46.7271 33.6441 45.3858 35.989 44.8292C38.5293 44.2733 41.298 44.6984 43.9687 45.5495C44.9132 45.811 45.5319 46.9564 45.2062 47.9053C44.9132 48.8214 43.7405 49.378 42.8287 49.0179C40.2883 48.1997 38.2691 48.1018 36.7706 48.4291C35.3048 48.7563 34.3603 49.4765 33.6761 50.5562C32.3405 52.7485 32.3405 56.9371 34.9137 62.1076C35.467 63.2207 34.5225 64.7585 33.285 64.7585C32.6857 64.7585 32.0649 64.7369 31.4394 64.7152C30.0597 64.6673 28.6573 64.6186 27.4121 64.7987C26.8764 64.8762 26.3833 65.1187 25.942 65.4322C24.5544 66.4181 23.7054 67.0213 22.9914 68.6945C22.902 68.9042 22.8418 69.1266 22.8315 69.3543C22.8144 69.7353 22.8456 70.148 22.878 70.5783C22.9147 71.0654 23.1973 71.509 23.6475 71.6986C24.4025 72.0165 25.24 72.293 26.0222 72.5141C28.5625 73.2014 32.0802 73.7902 35.5004 73.9539C38.9533 74.1175 42.3728 73.856 44.653 73.005C46.7702 72.2198 48.1052 70.6491 47.975 67.9982C49.2868 67.4672 50.4811 66.9951 51.7417 66.4968C52.5779 66.1663 53.4433 65.8242 54.3915 65.4458C57.3231 66.5583 59.7661 66.9835 63.5768 65.9038C65.4985 64.922 66.6712 63.1549 67.0944 61.1914C67.5182 59.2279 67.0945 57.1007 65.8569 55.5301C64.9453 53.6645 61.2647 52.7484 57.8772 52.7484C52.0795 38.874 44.7191 31.4783 24.785 26.6352V21.3669C25.7558 21.4499 26.7318 21.5426 27.7131 21.6358C35.6199 22.3863 43.8687 23.1694 52.503 19.2397C48.1713 14.4622 39.7676 12.3022 32.472 11.5498C32.7289 11.4215 32.9845 11.2943 33.2386 11.1678ZM7.52238 19.7307C7.52238 18.2252 8.76052 16.9818 10.2911 16.9818C11.8222 16.9818 13.0597 18.2252 13.0597 19.7307C13.0597 21.2691 11.8216 22.5124 10.2911 22.5124C8.75991 22.5124 7.52238 21.2684 7.52238 19.7307Z" fill="#191919"/>
</svg>
