<svg width="67" height="54" viewBox="0 0 67 54" fill="none" xmlns="http://www.w3.org/2000/svg">
<path fill-rule="evenodd" clip-rule="evenodd" d="M20.488 1.48921C16.1558 2.83525 12.1903 5.07712 8.71507 7.93446C5.9757 10.1868 3.54094 12.8215 1.47137 15.7014C0.884266 16.3898 0.884264 17.306 1.23636 18.1086C1.89918 17.8041 2.56343 17.5009 3.22961 17.2009C3.29691 17.1706 3.36422 17.1403 3.43156 17.11C6.24151 15.8479 9.08646 14.6443 12.0021 13.6272C14.5719 12.7308 17.1967 11.9793 19.9008 11.4603C22.6005 10.8871 25.418 10.5433 28.1177 10.5433C32.1087 10.5433 35.9825 11.2309 39.5044 12.7211C40.5732 13.148 41.6019 13.673 42.6319 14.1988C44.0905 14.9433 45.5518 15.6893 47.1341 16.1597C48.6604 16.7329 50.3039 16.9624 51.9473 16.9624C54.2809 16.9624 56.6138 16.449 58.7195 15.496C59.0506 15.3461 59.3761 15.1854 59.695 15.0141C63.4519 12.9515 65.7891 10.1301 66.9633 6.00484C64.2636 8.52636 60.9871 9.05484 57.2303 9.05484C57.1823 9.05484 57.1343 9.05465 57.0864 9.05427C54.7916 9.03583 52.6115 8.57486 50.6568 7.56463C49.337 6.92024 48.0749 6.04976 46.8303 5.19135C46.3036 4.82808 45.7801 4.46696 45.2566 4.12605C40.7965 1.3751 35.3962 0 30.114 0C26.8263 0 23.5398 0.457878 20.488 1.48921Z" fill="#231F20"/>
<path fill-rule="evenodd" clip-rule="evenodd" d="M20.488 19.2939C16.1558 20.6399 12.1903 22.8818 8.71507 25.7392C5.9757 27.9915 3.54094 30.6262 1.47137 33.5061C0.884266 34.1945 0.884264 35.1106 1.23636 35.9133C1.89918 35.6088 2.56343 35.3056 3.22961 35.0056C3.29691 34.9752 3.36422 34.945 3.43156 34.9147C6.24151 33.6526 9.08646 32.449 12.0021 31.4319C14.5719 30.5355 17.1967 29.784 19.9008 29.265C22.6005 28.6918 25.418 28.348 28.1177 28.348C32.1087 28.348 35.9825 29.0356 39.5044 30.5258C40.5732 30.9527 41.6019 31.4777 42.6319 32.0035C44.0905 32.748 45.5518 33.4939 47.1341 33.9644C48.6604 34.5376 50.3039 34.7671 51.9473 34.7671C54.2809 34.7671 56.6138 34.2537 58.7195 33.3006C59.0506 33.1508 59.3761 32.9901 59.695 32.8188C63.4519 30.7561 65.7891 27.9348 66.9633 23.8095C64.2636 26.331 60.9871 26.8595 57.2303 26.8595C57.1823 26.8595 57.1343 26.8593 57.0864 26.859C54.7916 26.8405 52.6115 26.3795 50.6568 25.3693C49.337 24.7249 48.0749 23.8544 46.8303 22.996C46.3036 22.6328 45.7801 22.2716 45.2566 21.9307C40.7965 19.1798 35.3962 17.8047 30.114 17.8047C26.8263 17.8047 23.5398 18.2626 20.488 19.2939Z" fill="#64615F"/>
<path fill-rule="evenodd" clip-rule="evenodd" d="M20.488 37.0986C16.1558 38.4446 12.1903 40.6865 8.71507 43.5438C5.9757 45.7962 3.54094 48.4309 1.47137 51.3107C0.884266 51.9992 0.884264 52.9153 1.23636 53.718C1.89918 53.4134 2.56343 53.1103 3.22961 52.8102C3.29691 52.7799 3.36422 52.7497 3.43156 52.7194C6.24151 51.4573 9.08646 50.2537 12.0021 49.2366C14.5719 48.3402 17.1967 47.5886 19.9008 47.0697C22.6005 46.4964 25.418 46.1527 28.1177 46.1527C32.1087 46.1527 35.9825 46.8403 39.5044 48.3305C40.5732 48.7574 41.6019 49.2824 42.6319 49.8082C44.0905 50.5527 45.5518 51.2986 47.1341 51.7691C48.6604 52.3423 50.3039 52.5718 51.9473 52.5718C54.2809 52.5718 56.6138 52.0584 58.7195 51.1053C59.0506 50.9555 59.3761 50.7948 59.695 50.6234C63.4519 48.5608 65.7891 45.7394 66.9633 41.6142C64.2636 44.1357 60.9871 44.6642 57.2303 44.6642C57.1823 44.6642 57.1343 44.664 57.0864 44.6636C54.7916 44.6452 52.6115 44.1842 50.6568 43.174C49.337 42.5296 48.0749 41.6591 46.8303 40.8007C46.3036 40.4375 45.7801 40.0763 45.2566 39.7354C40.7965 36.9845 35.3962 35.6094 30.114 35.6094C26.8263 35.6094 23.5398 36.0673 20.488 37.0986Z" fill="#A5A19E"/>
</svg>
