<svg width="71" height="70" viewBox="0 0 71 70" fill="none" xmlns="http://www.w3.org/2000/svg">
<path d="M68.6605 33.0401L58.885 33.0505C58.5047 28.0571 56.5468 23.4113 53.2778 19.6173L60.278 12.6171C60.8722 11.9227 60.8323 10.888 60.186 10.2416C59.5398 9.59535 58.5044 9.55551 57.81 10.1496L50.8098 17.1499C46.9912 13.8406 42.2011 11.863 37.1603 11.515V1.74961C37.1603 0.783393 36.3763 0 35.4101 0C34.4439 0 33.6599 0.783408 33.6599 1.74961V11.515C28.6378 11.8741 23.8671 13.8511 20.0626 17.1499L13.0623 10.1496C12.7336 9.8186 12.2866 9.63227 11.8202 9.63227C11.3532 9.63227 10.9061 9.8186 10.5774 10.1496C9.89886 10.8323 9.89886 11.935 10.5774 12.6176L17.5776 19.6178C14.2911 23.4417 12.3217 28.2205 11.9602 33.2498H2.15977C1.19355 33.2498 0.410156 34.0338 0.410156 35C0.410156 35.9662 1.19357 36.7502 2.15977 36.7502H11.9602C12.3575 42.1216 14.5876 47.194 18.2778 51.1174L11.8201 57.5751C11.4902 57.902 11.3045 58.3468 11.3027 58.8114C11.301 59.2761 11.4838 59.722 11.8113 60.0513C12.4928 60.7374 13.6014 60.7415 14.2876 60.0601L20.8501 53.4975C24.5227 56.4078 28.9864 58.1457 33.6599 58.4851V68.2504C33.6599 69.2166 34.4439 70 35.4101 70C36.3763 70 37.1603 69.2166 37.1603 68.2504V58.4851C42.1888 58.1294 46.966 56.1524 50.7753 52.8501L57.7755 59.8504C58.1036 60.1814 58.5513 60.3677 59.0177 60.3677C59.4841 60.3677 59.9318 60.1814 60.2605 59.8504C60.939 59.1677 60.939 58.065 60.2605 57.3824L53.2603 50.2949C56.5802 46.4406 58.5635 41.6154 58.9129 36.5399H68.6605C69.6268 36.5399 70.4102 35.7565 70.4102 34.7903C70.4102 33.8235 69.6267 33.0401 68.6605 33.0401Z" fill="#191919"/>
</svg>
