<svg width="70" height="74" viewBox="0 0 70 74" fill="none" xmlns="http://www.w3.org/2000/svg">
<path d="M28.7975 23.2928C28.7975 23.2928 24.5131 12.8936 17.0721 11.9065C17.0721 11.9065 18.1867 13.1405 19.9298 15.3899C25.0872 22.0469 35.763 37.6299 39.4704 56.6922C39.4704 56.6922 44.8823 11.4511 69.2344 0.217058C69.2344 0.217058 47.7379 24.2043 42.9276 74H36.013C36.013 74 34.5097 44.5475 21.2798 27.5433C21.2798 27.5433 11.0582 28.4544 7.45009 21.4706C3.84195 14.4874 4.7452 7.2006 0.234375 0.216767C33.7071 -2.61825 28.7961 23.2919 28.7961 23.2919L28.7975 23.2928Z" fill="#191919"/>
</svg>
